<mxfile host="65bd71144e" pages="7">
    <diagram id="SRy2Wd7eS6ofBbnWyENE" name="Architecture">
        <mxGraphModel dx="838" dy="488" grid="1" gridSize="10" guides="1" tooltips="1" connect="1" arrows="1" fold="1" page="1" pageScale="1" pageWidth="827" pageHeight="1169" math="0" shadow="0">
            <root>
                <mxCell id="0"/>
                <mxCell id="1" parent="0"/>
                <mxCell id="NUzPyte_wU4j1cO58Pii-3" value="" style="edgeStyle=orthogonalEdgeStyle;rounded=0;orthogonalLoop=1;jettySize=auto;html=1;startArrow=classic;startFill=1;" parent="1" source="NUzPyte_wU4j1cO58Pii-1" target="NUzPyte_wU4j1cO58Pii-2" edge="1">
                    <mxGeometry relative="1" as="geometry"/>
                </mxCell>
                <mxCell id="NUzPyte_wU4j1cO58Pii-1" value="UI" style="rounded=1;whiteSpace=wrap;html=1;" parent="1" vertex="1">
                    <mxGeometry x="340" y="90" width="120" height="60" as="geometry"/>
                </mxCell>
                <mxCell id="NUzPyte_wU4j1cO58Pii-7" style="edgeStyle=orthogonalEdgeStyle;rounded=1;orthogonalLoop=1;jettySize=auto;html=1;entryX=0.5;entryY=0;entryDx=0;entryDy=0;startArrow=classic;startFill=1;" parent="1" source="NUzPyte_wU4j1cO58Pii-2" target="SdtGmCoNIUVDgS3Ua2H--6" edge="1">
                    <mxGeometry relative="1" as="geometry">
                        <mxPoint x="130" y="310" as="targetPoint"/>
                    </mxGeometry>
                </mxCell>
                <mxCell id="NUzPyte_wU4j1cO58Pii-8" style="edgeStyle=orthogonalEdgeStyle;rounded=1;orthogonalLoop=1;jettySize=auto;html=1;entryX=0.5;entryY=0;entryDx=0;entryDy=0;startArrow=classic;startFill=1;" parent="1" source="NUzPyte_wU4j1cO58Pii-2" target="SdtGmCoNIUVDgS3Ua2H--5" edge="1">
                    <mxGeometry relative="1" as="geometry">
                        <Array as="points">
                            <mxPoint x="400" y="290"/>
                            <mxPoint x="410" y="290"/>
                        </Array>
                    </mxGeometry>
                </mxCell>
                <mxCell id="NUzPyte_wU4j1cO58Pii-9" style="edgeStyle=orthogonalEdgeStyle;rounded=1;orthogonalLoop=1;jettySize=auto;html=1;entryX=0.5;entryY=0;entryDx=0;entryDy=0;startArrow=classic;startFill=1;" parent="1" source="NUzPyte_wU4j1cO58Pii-2" target="SdtGmCoNIUVDgS3Ua2H--4" edge="1">
                    <mxGeometry relative="1" as="geometry"/>
                </mxCell>
                <mxCell id="NUzPyte_wU4j1cO58Pii-12" style="edgeStyle=orthogonalEdgeStyle;rounded=1;orthogonalLoop=1;jettySize=auto;html=1;entryX=0.5;entryY=0;entryDx=0;entryDy=0;startArrow=classic;startFill=1;" parent="1" source="NUzPyte_wU4j1cO58Pii-2" target="SdtGmCoNIUVDgS3Ua2H--7" edge="1">
                    <mxGeometry relative="1" as="geometry">
                        <Array as="points">
                            <mxPoint x="400" y="290"/>
                            <mxPoint x="260" y="290"/>
                        </Array>
                    </mxGeometry>
                </mxCell>
                <mxCell id="NUzPyte_wU4j1cO58Pii-13" style="edgeStyle=orthogonalEdgeStyle;rounded=1;orthogonalLoop=1;jettySize=auto;html=1;entryX=0.5;entryY=0;entryDx=0;entryDy=0;startArrow=classic;startFill=1;" parent="1" source="NUzPyte_wU4j1cO58Pii-2" target="SdtGmCoNIUVDgS3Ua2H--8" edge="1">
                    <mxGeometry relative="1" as="geometry">
                        <Array as="points">
                            <mxPoint x="400" y="290"/>
                            <mxPoint x="540" y="290"/>
                        </Array>
                    </mxGeometry>
                </mxCell>
                <mxCell id="NUzPyte_wU4j1cO58Pii-18" style="edgeStyle=orthogonalEdgeStyle;rounded=1;orthogonalLoop=1;jettySize=auto;html=1;entryX=0;entryY=0.5;entryDx=0;entryDy=0;startArrow=classic;startFill=1;exitX=0.75;exitY=0;exitDx=0;exitDy=0;" parent="1" source="NUzPyte_wU4j1cO58Pii-2" target="NUzPyte_wU4j1cO58Pii-15" edge="1">
                    <mxGeometry relative="1" as="geometry">
                        <Array as="points">
                            <mxPoint x="430" y="180"/>
                        </Array>
                    </mxGeometry>
                </mxCell>
                <mxCell id="NUzPyte_wU4j1cO58Pii-2" value="Core" style="rounded=1;whiteSpace=wrap;html=1;" parent="1" vertex="1">
                    <mxGeometry x="340" y="210" width="120" height="60" as="geometry"/>
                </mxCell>
                <mxCell id="NUzPyte_wU4j1cO58Pii-20" style="edgeStyle=orthogonalEdgeStyle;rounded=1;orthogonalLoop=1;jettySize=auto;html=1;entryX=0;entryY=0.5;entryDx=0;entryDy=0;startArrow=classic;startFill=1;" parent="1" source="NUzPyte_wU4j1cO58Pii-4" target="NUzPyte_wU4j1cO58Pii-19" edge="1">
                    <mxGeometry relative="1" as="geometry">
                        <Array as="points">
                            <mxPoint x="120" y="750"/>
                        </Array>
                    </mxGeometry>
                </mxCell>
                <mxCell id="NUzPyte_wU4j1cO58Pii-4" value="Amazon" style="ellipse;shape=cloud;whiteSpace=wrap;html=1;verticalAlign=middle;align=center;" parent="1" vertex="1">
                    <mxGeometry y="320" width="250" height="180" as="geometry"/>
                </mxCell>
                <mxCell id="NUzPyte_wU4j1cO58Pii-22" style="edgeStyle=orthogonalEdgeStyle;rounded=1;orthogonalLoop=1;jettySize=auto;html=1;entryX=0.5;entryY=0;entryDx=0;entryDy=0;startArrow=classic;startFill=1;" parent="1" source="NUzPyte_wU4j1cO58Pii-5" target="NUzPyte_wU4j1cO58Pii-19" edge="1">
                    <mxGeometry relative="1" as="geometry"/>
                </mxCell>
                <mxCell id="NUzPyte_wU4j1cO58Pii-5" value="Heroku" style="ellipse;shape=cloud;whiteSpace=wrap;html=1;" parent="1" vertex="1">
                    <mxGeometry x="275" y="320" width="250" height="180" as="geometry"/>
                </mxCell>
                <mxCell id="NUzPyte_wU4j1cO58Pii-24" style="edgeStyle=orthogonalEdgeStyle;rounded=1;orthogonalLoop=1;jettySize=auto;html=1;entryX=1;entryY=0.5;entryDx=0;entryDy=0;startArrow=classic;startFill=1;" parent="1" source="NUzPyte_wU4j1cO58Pii-6" target="NUzPyte_wU4j1cO58Pii-19" edge="1">
                    <mxGeometry relative="1" as="geometry">
                        <Array as="points">
                            <mxPoint x="700" y="750"/>
                        </Array>
                    </mxGeometry>
                </mxCell>
                <mxCell id="NUzPyte_wU4j1cO58Pii-6" value="Alibaba" style="ellipse;shape=cloud;whiteSpace=wrap;html=1;" parent="1" vertex="1">
                    <mxGeometry x="560" y="320" width="250" height="180" as="geometry"/>
                </mxCell>
                <mxCell id="NUzPyte_wU4j1cO58Pii-21" style="edgeStyle=orthogonalEdgeStyle;rounded=1;orthogonalLoop=1;jettySize=auto;html=1;startArrow=classic;startFill=1;entryX=0.25;entryY=0;entryDx=0;entryDy=0;" parent="1" source="NUzPyte_wU4j1cO58Pii-10" target="NUzPyte_wU4j1cO58Pii-19" edge="1">
                    <mxGeometry relative="1" as="geometry"/>
                </mxCell>
                <mxCell id="NUzPyte_wU4j1cO58Pii-10" value="GKE" style="ellipse;shape=cloud;whiteSpace=wrap;html=1;" parent="1" vertex="1">
                    <mxGeometry x="160" y="500" width="250" height="180" as="geometry"/>
                </mxCell>
                <mxCell id="NUzPyte_wU4j1cO58Pii-23" style="edgeStyle=orthogonalEdgeStyle;rounded=1;orthogonalLoop=1;jettySize=auto;html=1;entryX=0.75;entryY=0;entryDx=0;entryDy=0;startArrow=classic;startFill=1;" parent="1" source="NUzPyte_wU4j1cO58Pii-11" target="NUzPyte_wU4j1cO58Pii-19" edge="1">
                    <mxGeometry relative="1" as="geometry"/>
                </mxCell>
                <mxCell id="NUzPyte_wU4j1cO58Pii-11" value="etc" style="ellipse;shape=cloud;whiteSpace=wrap;html=1;" parent="1" vertex="1">
                    <mxGeometry x="440" y="500" width="250" height="180" as="geometry"/>
                </mxCell>
                <mxCell id="NUzPyte_wU4j1cO58Pii-14" value="Actor" style="shape=umlActor;verticalLabelPosition=bottom;verticalAlign=top;html=1;outlineConnect=0;" parent="1" vertex="1">
                    <mxGeometry x="190" y="90" width="30" height="60" as="geometry"/>
                </mxCell>
                <mxCell id="NUzPyte_wU4j1cO58Pii-15" value="API" style="rounded=0;whiteSpace=wrap;html=1;" parent="1" vertex="1">
                    <mxGeometry x="480" y="150" width="120" height="60" as="geometry"/>
                </mxCell>
                <mxCell id="NUzPyte_wU4j1cO58Pii-16" value="" style="shape=flexArrow;endArrow=classic;startArrow=classic;html=1;rounded=1;entryX=0;entryY=0.5;entryDx=0;entryDy=0;" parent="1" source="NUzPyte_wU4j1cO58Pii-14" target="NUzPyte_wU4j1cO58Pii-1" edge="1">
                    <mxGeometry width="100" height="100" relative="1" as="geometry">
                        <mxPoint x="210" y="210" as="sourcePoint"/>
                        <mxPoint x="310" y="110" as="targetPoint"/>
                    </mxGeometry>
                </mxCell>
                <mxCell id="NUzPyte_wU4j1cO58Pii-19" value="User EndPoint" style="rounded=1;whiteSpace=wrap;html=1;" parent="1" vertex="1">
                    <mxGeometry x="340" y="720" width="120" height="60" as="geometry"/>
                </mxCell>
                <mxCell id="SdtGmCoNIUVDgS3Ua2H--4" value="Agents" style="rounded=1;whiteSpace=wrap;html=1;" parent="1" vertex="1">
                    <mxGeometry x="650" y="325" width="60" height="30" as="geometry"/>
                </mxCell>
                <mxCell id="SdtGmCoNIUVDgS3Ua2H--5" value="Agents" style="rounded=1;whiteSpace=wrap;html=1;" parent="1" vertex="1">
                    <mxGeometry x="380" y="325" width="60" height="30" as="geometry"/>
                </mxCell>
                <mxCell id="SdtGmCoNIUVDgS3Ua2H--6" value="Agents" style="rounded=1;whiteSpace=wrap;html=1;" parent="1" vertex="1">
                    <mxGeometry x="90" y="325" width="60" height="30" as="geometry"/>
                </mxCell>
                <mxCell id="SdtGmCoNIUVDgS3Ua2H--7" value="Agents" style="rounded=1;whiteSpace=wrap;html=1;" parent="1" vertex="1">
                    <mxGeometry x="230" y="500" width="60" height="30" as="geometry"/>
                </mxCell>
                <mxCell id="SdtGmCoNIUVDgS3Ua2H--8" value="Agents" style="rounded=1;whiteSpace=wrap;html=1;" parent="1" vertex="1">
                    <mxGeometry x="510" y="500" width="60" height="30" as="geometry"/>
                </mxCell>
            </root>
        </mxGraphModel>
    </diagram>
    <diagram id="KAZKPuWsMeMXHK5TypwB" name="Service|Core">
        <mxGraphModel dx="653" dy="488" grid="1" gridSize="10" guides="1" tooltips="1" connect="1" arrows="1" fold="1" page="1" pageScale="1" pageWidth="827" pageHeight="1169" math="0" shadow="0">
            <root>
                <mxCell id="PsQ5Dl0-TwrRWn6gUfHb-0"/>
                <mxCell id="PsQ5Dl0-TwrRWn6gUfHb-1" parent="PsQ5Dl0-TwrRWn6gUfHb-0"/>
                <mxCell id="5NGROEZ70MTFvabYLOd8-1" value="" style="edgeStyle=orthogonalEdgeStyle;rounded=0;orthogonalLoop=1;jettySize=auto;html=1;" parent="PsQ5Dl0-TwrRWn6gUfHb-1" source="PsQ5Dl0-TwrRWn6gUfHb-16" target="5NGROEZ70MTFvabYLOd8-0" edge="1">
                    <mxGeometry relative="1" as="geometry"/>
                </mxCell>
                <mxCell id="PsQ5Dl0-TwrRWn6gUfHb-16" value="Core" style="rounded=0;whiteSpace=wrap;html=1;verticalAlign=top;" parent="PsQ5Dl0-TwrRWn6gUfHb-1" vertex="1">
                    <mxGeometry x="120" y="190" width="500" height="160" as="geometry"/>
                </mxCell>
                <mxCell id="PsQ5Dl0-TwrRWn6gUfHb-7" style="edgeStyle=orthogonalEdgeStyle;rounded=1;orthogonalLoop=1;jettySize=auto;html=1;startArrow=classic;startFill=1;endArrow=none;endFill=0;" parent="PsQ5Dl0-TwrRWn6gUfHb-1" source="PsQ5Dl0-TwrRWn6gUfHb-5" target="PsQ5Dl0-TwrRWn6gUfHb-6" edge="1">
                    <mxGeometry relative="1" as="geometry"/>
                </mxCell>
                <mxCell id="PsQ5Dl0-TwrRWn6gUfHb-13" style="edgeStyle=orthogonalEdgeStyle;rounded=1;orthogonalLoop=1;jettySize=auto;html=1;startArrow=none;startFill=0;" parent="PsQ5Dl0-TwrRWn6gUfHb-1" source="PsQ5Dl0-TwrRWn6gUfHb-5" target="PsQ5Dl0-TwrRWn6gUfHb-12" edge="1">
                    <mxGeometry relative="1" as="geometry"/>
                </mxCell>
                <mxCell id="PsQ5Dl0-TwrRWn6gUfHb-5" value="API Server" style="rounded=1;whiteSpace=wrap;html=1;" parent="PsQ5Dl0-TwrRWn6gUfHb-1" vertex="1">
                    <mxGeometry x="340" y="240" width="120" height="60" as="geometry"/>
                </mxCell>
                <mxCell id="PsQ5Dl0-TwrRWn6gUfHb-6" value="Scheduler" style="rounded=1;whiteSpace=wrap;html=1;" parent="PsQ5Dl0-TwrRWn6gUfHb-1" vertex="1">
                    <mxGeometry x="170" y="240" width="120" height="60" as="geometry"/>
                </mxCell>
                <mxCell id="PsQ5Dl0-TwrRWn6gUfHb-12" value="DB" style="shape=cylinder3;whiteSpace=wrap;html=1;boundedLbl=1;backgroundOutline=1;size=15;" parent="PsQ5Dl0-TwrRWn6gUfHb-1" vertex="1">
                    <mxGeometry x="510" y="230" width="60" height="80" as="geometry"/>
                </mxCell>
                <mxCell id="PsQ5Dl0-TwrRWn6gUfHb-14" value="" style="endArrow=classic;html=1;rounded=1;startArrow=classic;startFill=1;entryX=0.5;entryY=0;entryDx=0;entryDy=0;jumpStyle=arc;exitX=0.25;exitY=1;exitDx=0;exitDy=0;edgeStyle=elbowEdgeStyle;elbow=vertical;" parent="PsQ5Dl0-TwrRWn6gUfHb-1" source="PsQ5Dl0-TwrRWn6gUfHb-15" target="PsQ5Dl0-TwrRWn6gUfHb-16" edge="1">
                    <mxGeometry width="50" height="50" relative="1" as="geometry">
                        <mxPoint x="400" y="160" as="sourcePoint"/>
                        <mxPoint x="440" y="100" as="targetPoint"/>
                    </mxGeometry>
                </mxCell>
                <mxCell id="9GmN6QO2Jom2BdV3VVS--2" value="Create" style="edgeLabel;html=1;align=center;verticalAlign=middle;resizable=0;points=[];" parent="PsQ5Dl0-TwrRWn6gUfHb-14" vertex="1" connectable="0">
                    <mxGeometry x="-0.7091" relative="1" as="geometry">
                        <mxPoint as="offset"/>
                    </mxGeometry>
                </mxCell>
                <mxCell id="PsQ5Dl0-TwrRWn6gUfHb-15" value="CRUD Requests" style="rounded=0;whiteSpace=wrap;html=1;" parent="PsQ5Dl0-TwrRWn6gUfHb-1" vertex="1">
                    <mxGeometry x="220" y="40" width="300" height="60" as="geometry"/>
                </mxCell>
                <mxCell id="9GmN6QO2Jom2BdV3VVS--0" value="" style="endArrow=classic;html=1;rounded=1;startArrow=classic;startFill=1;entryX=0.5;entryY=0;entryDx=0;entryDy=0;jumpStyle=arc;exitX=0.5;exitY=1;exitDx=0;exitDy=0;edgeStyle=elbowEdgeStyle;elbow=vertical;" parent="PsQ5Dl0-TwrRWn6gUfHb-1" source="PsQ5Dl0-TwrRWn6gUfHb-15" target="PsQ5Dl0-TwrRWn6gUfHb-16" edge="1">
                    <mxGeometry width="50" height="50" relative="1" as="geometry">
                        <mxPoint x="305" y="110" as="sourcePoint"/>
                        <mxPoint x="380" y="200" as="targetPoint"/>
                    </mxGeometry>
                </mxCell>
                <mxCell id="9GmN6QO2Jom2BdV3VVS--3" value="Read" style="edgeLabel;html=1;align=center;verticalAlign=middle;resizable=0;points=[];" parent="9GmN6QO2Jom2BdV3VVS--0" vertex="1" connectable="0">
                    <mxGeometry x="-0.4889" relative="1" as="geometry">
                        <mxPoint as="offset"/>
                    </mxGeometry>
                </mxCell>
                <mxCell id="9GmN6QO2Jom2BdV3VVS--1" value="" style="endArrow=classic;html=1;rounded=1;startArrow=classic;startFill=1;entryX=0.5;entryY=0;entryDx=0;entryDy=0;jumpStyle=arc;exitX=0.75;exitY=1;exitDx=0;exitDy=0;edgeStyle=elbowEdgeStyle;elbow=vertical;" parent="PsQ5Dl0-TwrRWn6gUfHb-1" source="PsQ5Dl0-TwrRWn6gUfHb-15" target="PsQ5Dl0-TwrRWn6gUfHb-16" edge="1">
                    <mxGeometry width="50" height="50" relative="1" as="geometry">
                        <mxPoint x="380" y="110" as="sourcePoint"/>
                        <mxPoint x="380" y="200" as="targetPoint"/>
                    </mxGeometry>
                </mxCell>
                <mxCell id="9GmN6QO2Jom2BdV3VVS--4" value="Update/Delete" style="edgeLabel;html=1;align=center;verticalAlign=middle;resizable=0;points=[];" parent="9GmN6QO2Jom2BdV3VVS--1" vertex="1" connectable="0">
                    <mxGeometry x="-0.7212" y="2" relative="1" as="geometry">
                        <mxPoint as="offset"/>
                    </mxGeometry>
                </mxCell>
                <mxCell id="5NGROEZ70MTFvabYLOd8-0" value="Agents" style="whiteSpace=wrap;html=1;verticalAlign=middle;rounded=1;" parent="PsQ5Dl0-TwrRWn6gUfHb-1" vertex="1">
                    <mxGeometry x="310" y="480" width="120" height="60" as="geometry"/>
                </mxCell>
                <mxCell id="5NGROEZ70MTFvabYLOd8-2" value="Agents" style="whiteSpace=wrap;html=1;verticalAlign=middle;rounded=1;" parent="PsQ5Dl0-TwrRWn6gUfHb-1" vertex="1">
                    <mxGeometry x="320" y="490" width="120" height="60" as="geometry"/>
                </mxCell>
                <mxCell id="5NGROEZ70MTFvabYLOd8-3" value="Agents" style="whiteSpace=wrap;html=1;verticalAlign=middle;rounded=1;" parent="PsQ5Dl0-TwrRWn6gUfHb-1" vertex="1">
                    <mxGeometry x="330" y="500" width="120" height="60" as="geometry"/>
                </mxCell>
            </root>
        </mxGraphModel>
    </diagram>
    <diagram id="zvGQHIP7IfQCgYhLQbB0" name="Module|API Server">
        <mxGraphModel dx="838" dy="488" grid="1" gridSize="10" guides="1" tooltips="1" connect="1" arrows="1" fold="1" page="1" pageScale="1" pageWidth="827" pageHeight="1169" math="0" shadow="0">
            <root>
                <mxCell id="eo2EnIdeZHMJ2gKf3YH1-0"/>
                <mxCell id="eo2EnIdeZHMJ2gKf3YH1-1" parent="eo2EnIdeZHMJ2gKf3YH1-0"/>
                <mxCell id="kvXfT0mGP_8FTFPq4CLG-2" value="API Server modules" style="rounded=0;whiteSpace=wrap;html=1;sketch=0;verticalAlign=top;" parent="eo2EnIdeZHMJ2gKf3YH1-1" vertex="1">
                    <mxGeometry x="30" y="880" width="290" height="270" as="geometry"/>
                </mxCell>
                <mxCell id="eo2EnIdeZHMJ2gKf3YH1-5" value="" style="edgeStyle=orthogonalEdgeStyle;rounded=1;orthogonalLoop=1;jettySize=auto;html=1;startArrow=none;startFill=0;endArrow=classic;endFill=1;" parent="eo2EnIdeZHMJ2gKf3YH1-1" source="eo2EnIdeZHMJ2gKf3YH1-2" target="JZhH6VMhL3uaLB_ENuXq-1" edge="1">
                    <mxGeometry relative="1" as="geometry">
                        <mxPoint x="340" y="220" as="targetPoint"/>
                    </mxGeometry>
                </mxCell>
                <mxCell id="eo2EnIdeZHMJ2gKf3YH1-8" value="" style="edgeStyle=orthogonalEdgeStyle;rounded=1;orthogonalLoop=1;jettySize=auto;html=1;startArrow=classic;startFill=1;endArrow=none;endFill=0;" parent="eo2EnIdeZHMJ2gKf3YH1-1" source="eo2EnIdeZHMJ2gKf3YH1-2" target="eo2EnIdeZHMJ2gKf3YH1-7" edge="1">
                    <mxGeometry relative="1" as="geometry"/>
                </mxCell>
                <mxCell id="eo2EnIdeZHMJ2gKf3YH1-2" value="Receive requests (JSON)" style="rounded=1;whiteSpace=wrap;html=1;" parent="eo2EnIdeZHMJ2gKf3YH1-1" vertex="1">
                    <mxGeometry x="280" y="120" width="120" height="60" as="geometry"/>
                </mxCell>
                <mxCell id="eo2EnIdeZHMJ2gKf3YH1-10" value="" style="edgeStyle=orthogonalEdgeStyle;rounded=1;orthogonalLoop=1;jettySize=auto;html=1;startArrow=none;startFill=0;exitX=0.5;exitY=1;exitDx=0;exitDy=0;endArrow=classic;endFill=1;" parent="eo2EnIdeZHMJ2gKf3YH1-1" source="JZhH6VMhL3uaLB_ENuXq-1" target="b6Yic4W2wV75Ag-psQg7-0" edge="1">
                    <mxGeometry relative="1" as="geometry">
                        <mxPoint x="340" y="280" as="sourcePoint"/>
                    </mxGeometry>
                </mxCell>
                <mxCell id="JZhH6VMhL3uaLB_ENuXq-2" value="Yes" style="edgeLabel;html=1;align=center;verticalAlign=middle;resizable=0;points=[];" parent="eo2EnIdeZHMJ2gKf3YH1-10" vertex="1" connectable="0">
                    <mxGeometry x="-0.152" y="1" relative="1" as="geometry">
                        <mxPoint as="offset"/>
                    </mxGeometry>
                </mxCell>
                <mxCell id="eo2EnIdeZHMJ2gKf3YH1-7" value="Authentication Authorization &lt;br&gt;Audit" style="whiteSpace=wrap;html=1;rounded=1;" parent="eo2EnIdeZHMJ2gKf3YH1-1" vertex="1">
                    <mxGeometry x="280" y="20" width="120" height="60" as="geometry"/>
                </mxCell>
                <mxCell id="mOtJMEYqrnCXhFgI8wQD-1" value="" style="edgeStyle=orthogonalEdgeStyle;rounded=1;orthogonalLoop=1;jettySize=auto;html=1;startArrow=none;startFill=0;endArrow=classic;endFill=1;sketch=0;exitX=0;exitY=0.75;exitDx=0;exitDy=0;dashed=1;entryX=0.855;entryY=0;entryDx=0;entryDy=4.35;entryPerimeter=0;" parent="eo2EnIdeZHMJ2gKf3YH1-1" source="eo2EnIdeZHMJ2gKf3YH1-9" target="HDFT577bILo6CDwv9L9U-0" edge="1">
                    <mxGeometry relative="1" as="geometry">
                        <mxPoint x="100" y="750" as="targetPoint"/>
                    </mxGeometry>
                </mxCell>
                <mxCell id="HDFT577bILo6CDwv9L9U-7" style="edgeStyle=orthogonalEdgeStyle;rounded=1;sketch=0;orthogonalLoop=1;jettySize=auto;html=1;entryX=0;entryY=0.75;entryDx=0;entryDy=0;shadow=0;fontFamily=Helvetica;fontColor=#46495D;startArrow=none;startFill=0;endArrow=classic;endFill=1;jumpStyle=arc;jumpSize=6;" parent="eo2EnIdeZHMJ2gKf3YH1-1" source="eo2EnIdeZHMJ2gKf3YH1-9" target="HDFT577bILo6CDwv9L9U-2" edge="1">
                    <mxGeometry relative="1" as="geometry">
                        <Array as="points">
                            <mxPoint x="50" y="485"/>
                            <mxPoint x="50" y="165"/>
                        </Array>
                    </mxGeometry>
                </mxCell>
                <mxCell id="eo2EnIdeZHMJ2gKf3YH1-9" value="Insert to DB" style="whiteSpace=wrap;html=1;rounded=1;sketch=0;" parent="eo2EnIdeZHMJ2gKf3YH1-1" vertex="1">
                    <mxGeometry x="120" y="455" width="120" height="60" as="geometry"/>
                </mxCell>
                <mxCell id="JZhH6VMhL3uaLB_ENuXq-4" value="" style="edgeStyle=orthogonalEdgeStyle;rounded=1;orthogonalLoop=1;jettySize=auto;html=1;startArrow=none;startFill=0;endArrow=classic;endFill=1;entryX=0.5;entryY=1;entryDx=0;entryDy=0;" parent="eo2EnIdeZHMJ2gKf3YH1-1" source="JZhH6VMhL3uaLB_ENuXq-1" target="JZhH6VMhL3uaLB_ENuXq-6" edge="1">
                    <mxGeometry relative="1" as="geometry">
                        <mxPoint x="460" y="245" as="targetPoint"/>
                    </mxGeometry>
                </mxCell>
                <mxCell id="JZhH6VMhL3uaLB_ENuXq-5" value="No/Error" style="edgeLabel;html=1;align=center;verticalAlign=middle;resizable=0;points=[];" parent="JZhH6VMhL3uaLB_ENuXq-4" vertex="1" connectable="0">
                    <mxGeometry x="-0.8321" y="1" relative="1" as="geometry">
                        <mxPoint x="29" y="1" as="offset"/>
                    </mxGeometry>
                </mxCell>
                <mxCell id="JZhH6VMhL3uaLB_ENuXq-1" value="Validate JSON" style="rhombus;whiteSpace=wrap;html=1;" parent="eo2EnIdeZHMJ2gKf3YH1-1" vertex="1">
                    <mxGeometry x="290" y="210" width="100" height="70" as="geometry"/>
                </mxCell>
                <mxCell id="JZhH6VMhL3uaLB_ENuXq-6" value="Return Error" style="whiteSpace=wrap;html=1;rounded=1;" parent="eo2EnIdeZHMJ2gKf3YH1-1" vertex="1">
                    <mxGeometry x="440" y="120" width="120" height="60" as="geometry"/>
                </mxCell>
                <mxCell id="mOtJMEYqrnCXhFgI8wQD-3" value="" style="edgeStyle=orthogonalEdgeStyle;rounded=1;orthogonalLoop=1;jettySize=auto;html=1;startArrow=none;startFill=0;endArrow=classic;endFill=1;sketch=0;exitX=0.5;exitY=0;exitDx=0;exitDy=0;" parent="eo2EnIdeZHMJ2gKf3YH1-1" source="lXLv1qOSo3Fkk3mY8eEU-2" target="mOtJMEYqrnCXhFgI8wQD-2" edge="1">
                    <mxGeometry relative="1" as="geometry"/>
                </mxCell>
                <mxCell id="mOtJMEYqrnCXhFgI8wQD-0" value="Auth^2" style="whiteSpace=wrap;html=1;rounded=1;sketch=0;" parent="eo2EnIdeZHMJ2gKf3YH1-1" vertex="1">
                    <mxGeometry x="40" y="920" width="120" height="60" as="geometry"/>
                </mxCell>
                <mxCell id="JajZ3Py4YdcJcSaB3-DY-1" value="" style="edgeStyle=orthogonalEdgeStyle;orthogonalLoop=1;jettySize=auto;html=1;shadow=0;fontColor=#46495D;sketch=0;" parent="eo2EnIdeZHMJ2gKf3YH1-1" source="mOtJMEYqrnCXhFgI8wQD-2" target="JajZ3Py4YdcJcSaB3-DY-0" edge="1">
                    <mxGeometry relative="1" as="geometry"/>
                </mxCell>
                <mxCell id="mOtJMEYqrnCXhFgI8wQD-2" value="Send to Scheduler" style="whiteSpace=wrap;html=1;rounded=1;sketch=0;" parent="eo2EnIdeZHMJ2gKf3YH1-1" vertex="1">
                    <mxGeometry x="470" y="807.5" width="120" height="60" as="geometry"/>
                </mxCell>
                <mxCell id="lXLv1qOSo3Fkk3mY8eEU-1" value="" style="edgeStyle=orthogonalEdgeStyle;sketch=0;orthogonalLoop=1;jettySize=auto;html=1;shadow=0;fontColor=#46495D;" parent="eo2EnIdeZHMJ2gKf3YH1-1" source="JajZ3Py4YdcJcSaB3-DY-0" target="lXLv1qOSo3Fkk3mY8eEU-0" edge="1">
                    <mxGeometry relative="1" as="geometry"/>
                </mxCell>
                <mxCell id="JajZ3Py4YdcJcSaB3-DY-0" value="Return Ok" style="whiteSpace=wrap;html=1;rounded=1;sketch=0;" parent="eo2EnIdeZHMJ2gKf3YH1-1" vertex="1">
                    <mxGeometry x="650" y="807.5" width="120" height="60" as="geometry"/>
                </mxCell>
                <mxCell id="lXLv1qOSo3Fkk3mY8eEU-3" value="" style="edgeStyle=orthogonalEdgeStyle;sketch=0;orthogonalLoop=1;jettySize=auto;html=1;shadow=0;fontColor=#46495D;" parent="eo2EnIdeZHMJ2gKf3YH1-1" source="lXLv1qOSo3Fkk3mY8eEU-0" target="lXLv1qOSo3Fkk3mY8eEU-2" edge="1">
                    <mxGeometry relative="1" as="geometry"/>
                </mxCell>
                <mxCell id="lXLv1qOSo3Fkk3mY8eEU-0" value="Send to Agents" style="whiteSpace=wrap;html=1;rounded=1;sketch=0;" parent="eo2EnIdeZHMJ2gKf3YH1-1" vertex="1">
                    <mxGeometry x="650" y="947.5" width="120" height="60" as="geometry"/>
                </mxCell>
                <mxCell id="lXLv1qOSo3Fkk3mY8eEU-2" value="Return Ok" style="whiteSpace=wrap;html=1;rounded=1;sketch=0;" parent="eo2EnIdeZHMJ2gKf3YH1-1" vertex="1">
                    <mxGeometry x="470" y="947.5" width="120" height="60" as="geometry"/>
                </mxCell>
                <mxCell id="HDFT577bILo6CDwv9L9U-5" style="edgeStyle=orthogonalEdgeStyle;rounded=1;sketch=0;orthogonalLoop=1;jettySize=auto;html=1;entryX=0.5;entryY=0;entryDx=0;entryDy=0;shadow=0;fontFamily=Helvetica;fontColor=#46495D;startArrow=none;startFill=0;endArrow=classic;endFill=1;" parent="eo2EnIdeZHMJ2gKf3YH1-1" source="b6Yic4W2wV75Ag-psQg7-0" target="HDFT577bILo6CDwv9L9U-4" edge="1">
                    <mxGeometry relative="1" as="geometry"/>
                </mxCell>
                <mxCell id="b6Yic4W2wV75Ag-psQg7-0" value="Read request?" style="rhombus;whiteSpace=wrap;html=1;" parent="eo2EnIdeZHMJ2gKf3YH1-1" vertex="1">
                    <mxGeometry x="290" y="330" width="100" height="70" as="geometry"/>
                </mxCell>
                <mxCell id="b6Yic4W2wV75Ag-psQg7-4" value="" style="edgeStyle=orthogonalEdgeStyle;rounded=1;orthogonalLoop=1;jettySize=auto;html=1;startArrow=none;startFill=0;exitX=0;exitY=0.5;exitDx=0;exitDy=0;endArrow=classic;endFill=1;entryX=1;entryY=0.5;entryDx=0;entryDy=0;" parent="eo2EnIdeZHMJ2gKf3YH1-1" source="b6Yic4W2wV75Ag-psQg7-0" target="b6Yic4W2wV75Ag-psQg7-6" edge="1">
                    <mxGeometry relative="1" as="geometry">
                        <mxPoint x="300" y="255" as="sourcePoint"/>
                        <mxPoint x="90" y="320" as="targetPoint"/>
                    </mxGeometry>
                </mxCell>
                <mxCell id="b6Yic4W2wV75Ag-psQg7-5" value="Yes" style="edgeLabel;html=1;align=center;verticalAlign=middle;resizable=0;points=[];" parent="b6Yic4W2wV75Ag-psQg7-4" vertex="1" connectable="0">
                    <mxGeometry x="-0.152" y="1" relative="1" as="geometry">
                        <mxPoint as="offset"/>
                    </mxGeometry>
                </mxCell>
                <mxCell id="HDFT577bILo6CDwv9L9U-1" style="edgeStyle=orthogonalEdgeStyle;rounded=1;sketch=0;orthogonalLoop=1;jettySize=auto;html=1;entryX=0.5;entryY=0;entryDx=0;entryDy=0;entryPerimeter=0;shadow=0;fontFamily=Helvetica;fontColor=#46495D;dashed=1;startArrow=classic;startFill=1;endArrow=none;endFill=0;exitX=0;exitY=0.75;exitDx=0;exitDy=0;jumpStyle=arc;" parent="eo2EnIdeZHMJ2gKf3YH1-1" source="b6Yic4W2wV75Ag-psQg7-6" target="HDFT577bILo6CDwv9L9U-0" edge="1">
                    <mxGeometry relative="1" as="geometry"/>
                </mxCell>
                <mxCell id="HDFT577bILo6CDwv9L9U-3" style="edgeStyle=orthogonalEdgeStyle;rounded=1;sketch=0;orthogonalLoop=1;jettySize=auto;html=1;entryX=0.5;entryY=1;entryDx=0;entryDy=0;shadow=0;fontFamily=Helvetica;fontColor=#46495D;startArrow=none;startFill=0;endArrow=classic;endFill=1;exitX=0.5;exitY=0;exitDx=0;exitDy=0;" parent="eo2EnIdeZHMJ2gKf3YH1-1" source="b6Yic4W2wV75Ag-psQg7-6" target="HDFT577bILo6CDwv9L9U-2" edge="1">
                    <mxGeometry relative="1" as="geometry">
                        <Array as="points">
                            <mxPoint x="180" y="280"/>
                            <mxPoint x="180" y="280"/>
                        </Array>
                    </mxGeometry>
                </mxCell>
                <mxCell id="b6Yic4W2wV75Ag-psQg7-6" value="Read DB" style="rounded=1;whiteSpace=wrap;html=1;glass=0;sketch=0;fontFamily=Helvetica;" parent="eo2EnIdeZHMJ2gKf3YH1-1" vertex="1">
                    <mxGeometry x="120" y="335" width="120" height="60" as="geometry"/>
                </mxCell>
                <mxCell id="HDFT577bILo6CDwv9L9U-0" value="DB" style="shape=cylinder3;whiteSpace=wrap;html=1;boundedLbl=1;backgroundOutline=1;size=15;rounded=1;glass=0;sketch=0;fontFamily=Helvetica;" parent="eo2EnIdeZHMJ2gKf3YH1-1" vertex="1">
                    <mxGeometry x="30" y="750" width="60" height="80" as="geometry"/>
                </mxCell>
                <mxCell id="HDFT577bILo6CDwv9L9U-2" value="Return Data" style="whiteSpace=wrap;html=1;rounded=1;" parent="eo2EnIdeZHMJ2gKf3YH1-1" vertex="1">
                    <mxGeometry x="120" y="120" width="120" height="60" as="geometry"/>
                </mxCell>
                <mxCell id="HDFT577bILo6CDwv9L9U-6" style="edgeStyle=orthogonalEdgeStyle;rounded=1;sketch=0;orthogonalLoop=1;jettySize=auto;html=1;entryX=1;entryY=0.5;entryDx=0;entryDy=0;shadow=0;fontFamily=Helvetica;fontColor=#46495D;startArrow=none;startFill=0;endArrow=classic;endFill=1;" parent="eo2EnIdeZHMJ2gKf3YH1-1" source="HDFT577bILo6CDwv9L9U-4" target="eo2EnIdeZHMJ2gKf3YH1-9" edge="1">
                    <mxGeometry relative="1" as="geometry"/>
                </mxCell>
                <mxCell id="sMrxK5FFjUmvP71CRiSV-1" value="" style="edgeStyle=orthogonalEdgeStyle;rounded=0;jumpStyle=arc;jumpSize=6;orthogonalLoop=1;jettySize=auto;html=1;entryX=0.5;entryY=0;entryDx=0;entryDy=0;" parent="eo2EnIdeZHMJ2gKf3YH1-1" source="HDFT577bILo6CDwv9L9U-4" target="sMrxK5FFjUmvP71CRiSV-2" edge="1">
                    <mxGeometry relative="1" as="geometry">
                        <mxPoint x="340" y="595" as="targetPoint"/>
                    </mxGeometry>
                </mxCell>
                <mxCell id="HDFT577bILo6CDwv9L9U-4" value="Create request?" style="rhombus;whiteSpace=wrap;html=1;" parent="eo2EnIdeZHMJ2gKf3YH1-1" vertex="1">
                    <mxGeometry x="290" y="450" width="100" height="70" as="geometry"/>
                </mxCell>
                <mxCell id="sMrxK5FFjUmvP71CRiSV-4" value="" style="edgeStyle=orthogonalEdgeStyle;rounded=0;jumpStyle=arc;jumpSize=6;orthogonalLoop=1;jettySize=auto;html=1;" parent="eo2EnIdeZHMJ2gKf3YH1-1" source="sMrxK5FFjUmvP71CRiSV-2" target="sMrxK5FFjUmvP71CRiSV-3" edge="1">
                    <mxGeometry relative="1" as="geometry"/>
                </mxCell>
                <mxCell id="sMrxK5FFjUmvP71CRiSV-8" style="edgeStyle=orthogonalEdgeStyle;rounded=1;jumpStyle=arc;jumpSize=6;orthogonalLoop=1;jettySize=auto;html=1;entryX=0.5;entryY=0;entryDx=0;entryDy=0;dashed=1;" parent="eo2EnIdeZHMJ2gKf3YH1-1" source="sMrxK5FFjUmvP71CRiSV-2" target="sMrxK5FFjUmvP71CRiSV-7" edge="1">
                    <mxGeometry relative="1" as="geometry"/>
                </mxCell>
                <mxCell id="sMrxK5FFjUmvP71CRiSV-2" value="Update request?" style="rhombus;whiteSpace=wrap;html=1;" parent="eo2EnIdeZHMJ2gKf3YH1-1" vertex="1">
                    <mxGeometry x="290" y="570" width="100" height="70" as="geometry"/>
                </mxCell>
                <mxCell id="sMrxK5FFjUmvP71CRiSV-5" style="edgeStyle=orthogonalEdgeStyle;rounded=1;jumpStyle=arc;jumpSize=6;orthogonalLoop=1;jettySize=auto;html=1;dashed=1;entryX=0.855;entryY=0;entryDx=0;entryDy=4.35;entryPerimeter=0;exitX=0;exitY=0.75;exitDx=0;exitDy=0;" parent="eo2EnIdeZHMJ2gKf3YH1-1" source="sMrxK5FFjUmvP71CRiSV-3" target="HDFT577bILo6CDwv9L9U-0" edge="1">
                    <mxGeometry relative="1" as="geometry">
                        <mxPoint x="80" y="750" as="targetPoint"/>
                    </mxGeometry>
                </mxCell>
                <mxCell id="sMrxK5FFjUmvP71CRiSV-12" style="edgeStyle=orthogonalEdgeStyle;rounded=1;jumpStyle=arc;jumpSize=6;orthogonalLoop=1;jettySize=auto;html=1;entryX=0;entryY=0.5;entryDx=0;entryDy=0;exitX=0;exitY=0.5;exitDx=0;exitDy=0;" parent="eo2EnIdeZHMJ2gKf3YH1-1" source="sMrxK5FFjUmvP71CRiSV-3" target="HDFT577bILo6CDwv9L9U-2" edge="1">
                    <mxGeometry relative="1" as="geometry">
                        <Array as="points">
                            <mxPoint x="40" y="605"/>
                            <mxPoint x="40" y="150"/>
                        </Array>
                    </mxGeometry>
                </mxCell>
                <mxCell id="sMrxK5FFjUmvP71CRiSV-3" value="Update to DB" style="rounded=1;whiteSpace=wrap;html=1;" parent="eo2EnIdeZHMJ2gKf3YH1-1" vertex="1">
                    <mxGeometry x="120" y="575" width="120" height="60" as="geometry"/>
                </mxCell>
                <mxCell id="sMrxK5FFjUmvP71CRiSV-10" value="" style="edgeStyle=orthogonalEdgeStyle;rounded=1;jumpStyle=arc;jumpSize=6;orthogonalLoop=1;jettySize=auto;html=1;dashed=1;" parent="eo2EnIdeZHMJ2gKf3YH1-1" source="sMrxK5FFjUmvP71CRiSV-7" target="sMrxK5FFjUmvP71CRiSV-9" edge="1">
                    <mxGeometry relative="1" as="geometry"/>
                </mxCell>
                <mxCell id="sMrxK5FFjUmvP71CRiSV-7" value="Delete request?" style="rhombus;whiteSpace=wrap;html=1;" parent="eo2EnIdeZHMJ2gKf3YH1-1" vertex="1">
                    <mxGeometry x="290" y="690" width="100" height="70" as="geometry"/>
                </mxCell>
                <mxCell id="sMrxK5FFjUmvP71CRiSV-11" style="edgeStyle=orthogonalEdgeStyle;rounded=1;jumpStyle=arc;jumpSize=6;orthogonalLoop=1;jettySize=auto;html=1;entryX=0.855;entryY=0;entryDx=0;entryDy=4.35;entryPerimeter=0;dashed=1;exitX=0;exitY=0.75;exitDx=0;exitDy=0;" parent="eo2EnIdeZHMJ2gKf3YH1-1" source="sMrxK5FFjUmvP71CRiSV-9" target="HDFT577bILo6CDwv9L9U-0" edge="1">
                    <mxGeometry relative="1" as="geometry">
                        <Array as="points">
                            <mxPoint x="81" y="740"/>
                        </Array>
                    </mxGeometry>
                </mxCell>
                <mxCell id="sMrxK5FFjUmvP71CRiSV-13" style="edgeStyle=orthogonalEdgeStyle;rounded=1;jumpStyle=arc;jumpSize=6;orthogonalLoop=1;jettySize=auto;html=1;entryX=0;entryY=0.25;entryDx=0;entryDy=0;exitX=0;exitY=0.5;exitDx=0;exitDy=0;" parent="eo2EnIdeZHMJ2gKf3YH1-1" source="sMrxK5FFjUmvP71CRiSV-9" target="HDFT577bILo6CDwv9L9U-2" edge="1">
                    <mxGeometry relative="1" as="geometry">
                        <Array as="points">
                            <mxPoint x="30" y="725"/>
                            <mxPoint x="30" y="135"/>
                        </Array>
                    </mxGeometry>
                </mxCell>
                <mxCell id="sMrxK5FFjUmvP71CRiSV-9" value="Delete to DB" style="rounded=1;whiteSpace=wrap;html=1;" parent="eo2EnIdeZHMJ2gKf3YH1-1" vertex="1">
                    <mxGeometry x="120" y="695" width="120" height="60" as="geometry"/>
                </mxCell>
                <mxCell id="kvXfT0mGP_8FTFPq4CLG-0" value="Work with DB" style="whiteSpace=wrap;html=1;rounded=1;sketch=0;" parent="eo2EnIdeZHMJ2gKf3YH1-1" vertex="1">
                    <mxGeometry x="40" y="1000" width="120" height="60" as="geometry"/>
                </mxCell>
                <mxCell id="kvXfT0mGP_8FTFPq4CLG-1" value="Logging/Audit" style="whiteSpace=wrap;html=1;rounded=1;sketch=0;" parent="eo2EnIdeZHMJ2gKf3YH1-1" vertex="1">
                    <mxGeometry x="40" y="1080" width="120" height="60" as="geometry"/>
                </mxCell>
                <mxCell id="kvXfT0mGP_8FTFPq4CLG-3" value="REST API" style="whiteSpace=wrap;html=1;rounded=1;sketch=0;" parent="eo2EnIdeZHMJ2gKf3YH1-1" vertex="1">
                    <mxGeometry x="190" y="920" width="120" height="60" as="geometry"/>
                </mxCell>
            </root>
        </mxGraphModel>
    </diagram>
    <diagram id="6DS0IxbfFm9UPeE94HJj" name="Module|Scheduler">
        <mxGraphModel dx="838" dy="488" grid="1" gridSize="10" guides="1" tooltips="1" connect="1" arrows="1" fold="1" page="1" pageScale="1" pageWidth="827" pageHeight="1169" math="0" shadow="0">
            <root>
                <mxCell id="HZcYQYkoJH3neFrLHVz--0"/>
                <mxCell id="HZcYQYkoJH3neFrLHVz--1" parent="HZcYQYkoJH3neFrLHVz--0"/>
                <mxCell id="upCkCqzJfHdY2PVWOKRj-0" value="" style="edgeStyle=orthogonalEdgeStyle;rounded=0;orthogonalLoop=1;jettySize=auto;html=1;startArrow=none;startFill=0;endArrow=classic;endFill=1;" parent="HZcYQYkoJH3neFrLHVz--1" source="upCkCqzJfHdY2PVWOKRj-1" target="upCkCqzJfHdY2PVWOKRj-8" edge="1">
                    <mxGeometry relative="1" as="geometry">
                        <mxPoint x="280" y="160" as="targetPoint"/>
                    </mxGeometry>
                </mxCell>
                <mxCell id="upCkCqzJfHdY2PVWOKRj-1" value="Receive requests (JSON)" style="rounded=0;whiteSpace=wrap;html=1;" parent="HZcYQYkoJH3neFrLHVz--1" vertex="1">
                    <mxGeometry x="220" y="40" width="120" height="60" as="geometry"/>
                </mxCell>
                <mxCell id="upCkCqzJfHdY2PVWOKRj-2" value="" style="edgeStyle=orthogonalEdgeStyle;rounded=0;orthogonalLoop=1;jettySize=auto;html=1;startArrow=none;startFill=0;exitX=0;exitY=0.5;exitDx=0;exitDy=0;endArrow=classic;endFill=1;" parent="HZcYQYkoJH3neFrLHVz--1" source="upCkCqzJfHdY2PVWOKRj-8" target="upCkCqzJfHdY2PVWOKRj-5" edge="1">
                    <mxGeometry relative="1" as="geometry">
                        <mxPoint x="280" y="220" as="sourcePoint"/>
                    </mxGeometry>
                </mxCell>
                <mxCell id="upCkCqzJfHdY2PVWOKRj-3" value="Yes" style="edgeLabel;html=1;align=center;verticalAlign=middle;resizable=0;points=[];rounded=0;" parent="upCkCqzJfHdY2PVWOKRj-2" vertex="1" connectable="0">
                    <mxGeometry x="-0.152" y="1" relative="1" as="geometry">
                        <mxPoint as="offset"/>
                    </mxGeometry>
                </mxCell>
                <mxCell id="upCkCqzJfHdY2PVWOKRj-4" value="" style="edgeStyle=orthogonalEdgeStyle;rounded=0;orthogonalLoop=1;jettySize=auto;html=1;startArrow=none;startFill=0;endArrow=classic;endFill=1;entryX=0.5;entryY=0;entryDx=0;entryDy=0;" parent="HZcYQYkoJH3neFrLHVz--1" source="upCkCqzJfHdY2PVWOKRj-5" target="UX0vxJV2Kv-MdvnBQB7E-0" edge="1">
                    <mxGeometry relative="1" as="geometry">
                        <mxPoint x="100" y="295" as="targetPoint"/>
                        <Array as="points">
                            <mxPoint x="100" y="230"/>
                            <mxPoint x="280" y="230"/>
                        </Array>
                    </mxGeometry>
                </mxCell>
                <mxCell id="upCkCqzJfHdY2PVWOKRj-5" value="Update DB/provider_region" style="whiteSpace=wrap;html=1;rounded=0;" parent="HZcYQYkoJH3neFrLHVz--1" vertex="1">
                    <mxGeometry x="40" y="155" width="120" height="60" as="geometry"/>
                </mxCell>
                <mxCell id="upCkCqzJfHdY2PVWOKRj-6" value="" style="edgeStyle=orthogonalEdgeStyle;rounded=0;orthogonalLoop=1;jettySize=auto;html=1;startArrow=none;startFill=0;endArrow=classic;endFill=1;entryX=0;entryY=0.5;entryDx=0;entryDy=0;" parent="HZcYQYkoJH3neFrLHVz--1" source="upCkCqzJfHdY2PVWOKRj-8" target="upCkCqzJfHdY2PVWOKRj-9" edge="1">
                    <mxGeometry relative="1" as="geometry">
                        <mxPoint x="400" y="185" as="targetPoint"/>
                    </mxGeometry>
                </mxCell>
                <mxCell id="upCkCqzJfHdY2PVWOKRj-7" value="No/Error" style="edgeLabel;html=1;align=center;verticalAlign=middle;resizable=0;points=[];rounded=0;" parent="upCkCqzJfHdY2PVWOKRj-6" vertex="1" connectable="0">
                    <mxGeometry x="-0.8321" y="1" relative="1" as="geometry">
                        <mxPoint x="29" y="1" as="offset"/>
                    </mxGeometry>
                </mxCell>
                <mxCell id="upCkCqzJfHdY2PVWOKRj-8" value="Check available" style="rhombus;whiteSpace=wrap;html=1;rounded=0;" parent="HZcYQYkoJH3neFrLHVz--1" vertex="1">
                    <mxGeometry x="230" y="150" width="100" height="70" as="geometry"/>
                </mxCell>
                <mxCell id="upCkCqzJfHdY2PVWOKRj-9" value="Return Error" style="whiteSpace=wrap;html=1;rounded=0;" parent="HZcYQYkoJH3neFrLHVz--1" vertex="1">
                    <mxGeometry x="400" y="155" width="120" height="60" as="geometry"/>
                </mxCell>
                <mxCell id="1tQ7UFAhRMPu1RxplMzn-1" value="" style="edgeStyle=orthogonalEdgeStyle;rounded=0;orthogonalLoop=1;jettySize=auto;html=1;startArrow=none;startFill=0;endArrow=classic;endFill=1;" parent="HZcYQYkoJH3neFrLHVz--1" source="UX0vxJV2Kv-MdvnBQB7E-0" target="1tQ7UFAhRMPu1RxplMzn-0" edge="1">
                    <mxGeometry relative="1" as="geometry"/>
                </mxCell>
                <mxCell id="1tQ7UFAhRMPu1RxplMzn-3" value="" style="edgeStyle=orthogonalEdgeStyle;rounded=0;orthogonalLoop=1;jettySize=auto;html=1;startArrow=none;startFill=0;endArrow=classic;endFill=1;" parent="HZcYQYkoJH3neFrLHVz--1" source="UX0vxJV2Kv-MdvnBQB7E-0" target="1tQ7UFAhRMPu1RxplMzn-2" edge="1">
                    <mxGeometry relative="1" as="geometry"/>
                </mxCell>
                <mxCell id="UX0vxJV2Kv-MdvnBQB7E-0" value="Check latency" style="rhombus;whiteSpace=wrap;html=1;rounded=0;" parent="HZcYQYkoJH3neFrLHVz--1" vertex="1">
                    <mxGeometry x="230" y="250" width="100" height="70" as="geometry"/>
                </mxCell>
                <mxCell id="1tQ7UFAhRMPu1RxplMzn-7" style="edgeStyle=orthogonalEdgeStyle;rounded=0;orthogonalLoop=1;jettySize=auto;html=1;entryX=0.5;entryY=0;entryDx=0;entryDy=0;startArrow=none;startFill=0;endArrow=classic;endFill=1;" parent="HZcYQYkoJH3neFrLHVz--1" source="1tQ7UFAhRMPu1RxplMzn-0" target="1tQ7UFAhRMPu1RxplMzn-6" edge="1">
                    <mxGeometry relative="1" as="geometry">
                        <Array as="points">
                            <mxPoint x="100" y="330"/>
                            <mxPoint x="280" y="330"/>
                        </Array>
                    </mxGeometry>
                </mxCell>
                <mxCell id="1tQ7UFAhRMPu1RxplMzn-0" value="Update DB/type" style="rounded=0;whiteSpace=wrap;html=1;" parent="HZcYQYkoJH3neFrLHVz--1" vertex="1">
                    <mxGeometry x="40" y="255" width="120" height="60" as="geometry"/>
                </mxCell>
                <mxCell id="1tQ7UFAhRMPu1RxplMzn-2" value="Return Error" style="rounded=0;whiteSpace=wrap;html=1;" parent="HZcYQYkoJH3neFrLHVz--1" vertex="1">
                    <mxGeometry x="400" y="255" width="120" height="60" as="geometry"/>
                </mxCell>
                <mxCell id="1tQ7UFAhRMPu1RxplMzn-9" value="" style="edgeStyle=orthogonalEdgeStyle;rounded=0;orthogonalLoop=1;jettySize=auto;html=1;startArrow=none;startFill=0;endArrow=classic;endFill=1;" parent="HZcYQYkoJH3neFrLHVz--1" source="1tQ7UFAhRMPu1RxplMzn-6" target="1tQ7UFAhRMPu1RxplMzn-8" edge="1">
                    <mxGeometry relative="1" as="geometry"/>
                </mxCell>
                <mxCell id="1tQ7UFAhRMPu1RxplMzn-6" value="Check &lt;br&gt;resources" style="rhombus;whiteSpace=wrap;html=1;rounded=0;" parent="HZcYQYkoJH3neFrLHVz--1" vertex="1">
                    <mxGeometry x="230" y="350" width="100" height="70" as="geometry"/>
                </mxCell>
                <mxCell id="NcI_NZvQl0Vz22WJVavr-3" value="" style="edgeStyle=orthogonalEdgeStyle;rounded=0;orthogonalLoop=1;jettySize=auto;html=1;fontColor=#46495D;shadow=0;" parent="HZcYQYkoJH3neFrLHVz--1" source="1tQ7UFAhRMPu1RxplMzn-8" target="NcI_NZvQl0Vz22WJVavr-2" edge="1">
                    <mxGeometry relative="1" as="geometry"/>
                </mxCell>
                <mxCell id="1tQ7UFAhRMPu1RxplMzn-8" value="Update DB/etc" style="rounded=0;whiteSpace=wrap;html=1;" parent="HZcYQYkoJH3neFrLHVz--1" vertex="1">
                    <mxGeometry x="40" y="355" width="120" height="60" as="geometry"/>
                </mxCell>
                <mxCell id="NcI_NZvQl0Vz22WJVavr-0" value="" style="edgeStyle=orthogonalEdgeStyle;rounded=0;orthogonalLoop=1;jettySize=auto;html=1;startArrow=none;startFill=0;endArrow=classic;endFill=1;" parent="HZcYQYkoJH3neFrLHVz--1" target="NcI_NZvQl0Vz22WJVavr-1" edge="1">
                    <mxGeometry relative="1" as="geometry">
                        <mxPoint x="330" y="385" as="sourcePoint"/>
                    </mxGeometry>
                </mxCell>
                <mxCell id="NcI_NZvQl0Vz22WJVavr-1" value="Return Error" style="rounded=0;whiteSpace=wrap;html=1;" parent="HZcYQYkoJH3neFrLHVz--1" vertex="1">
                    <mxGeometry x="400" y="355" width="120" height="60" as="geometry"/>
                </mxCell>
                <mxCell id="NcI_NZvQl0Vz22WJVavr-2" value="Return Ok" style="whiteSpace=wrap;html=1;rounded=0;" parent="HZcYQYkoJH3neFrLHVz--1" vertex="1">
                    <mxGeometry x="40" y="460" width="120" height="60" as="geometry"/>
                </mxCell>
                <mxCell id="kKvv_HSlYqVWu5unFVhx-1" style="edgeStyle=orthogonalEdgeStyle;rounded=1;jumpStyle=arc;jumpSize=6;orthogonalLoop=1;jettySize=auto;html=1;entryX=1;entryY=0.5;entryDx=0;entryDy=0;" parent="HZcYQYkoJH3neFrLHVz--1" source="kKvv_HSlYqVWu5unFVhx-0" target="upCkCqzJfHdY2PVWOKRj-1" edge="1">
                    <mxGeometry relative="1" as="geometry"/>
                </mxCell>
                <mxCell id="kKvv_HSlYqVWu5unFVhx-2" value="Yes" style="edgeLabel;html=1;align=center;verticalAlign=middle;resizable=0;points=[];" parent="kKvv_HSlYqVWu5unFVhx-1" vertex="1" connectable="0">
                    <mxGeometry x="-0.2714" y="2" relative="1" as="geometry">
                        <mxPoint as="offset"/>
                    </mxGeometry>
                </mxCell>
                <mxCell id="G5hHXPQuNSb0-lugNUR8-1" value="" style="edgeStyle=orthogonalEdgeStyle;rounded=1;jumpStyle=arc;jumpSize=6;orthogonalLoop=1;jettySize=auto;html=1;" parent="HZcYQYkoJH3neFrLHVz--1" source="kKvv_HSlYqVWu5unFVhx-0" target="G5hHXPQuNSb0-lugNUR8-0" edge="1">
                    <mxGeometry relative="1" as="geometry"/>
                </mxCell>
                <mxCell id="kKvv_HSlYqVWu5unFVhx-0" value="&lt;span&gt;Check new tasks&lt;/span&gt;" style="shape=hexagon;perimeter=hexagonPerimeter2;whiteSpace=wrap;html=1;fixedSize=1;rounded=0;" parent="HZcYQYkoJH3neFrLHVz--1" vertex="1">
                    <mxGeometry x="400" y="30" width="120" height="80" as="geometry"/>
                </mxCell>
                <mxCell id="TA9sqlyIWliGIPXAGn52-1" style="edgeStyle=orthogonalEdgeStyle;rounded=1;jumpStyle=arc;jumpSize=6;orthogonalLoop=1;jettySize=auto;html=1;entryX=0.5;entryY=0;entryDx=0;entryDy=0;" parent="HZcYQYkoJH3neFrLHVz--1" source="G5hHXPQuNSb0-lugNUR8-0" target="TA9sqlyIWliGIPXAGn52-0" edge="1">
                    <mxGeometry relative="1" as="geometry"/>
                </mxCell>
                <mxCell id="G5hHXPQuNSb0-lugNUR8-0" value="Check providers" style="rounded=1;whiteSpace=wrap;html=1;" parent="HZcYQYkoJH3neFrLHVz--1" vertex="1">
                    <mxGeometry x="560" y="40" width="120" height="60" as="geometry"/>
                </mxCell>
                <mxCell id="TA9sqlyIWliGIPXAGn52-0" value="Read DB" style="rounded=1;whiteSpace=wrap;html=1;glass=0;sketch=0;fontFamily=Helvetica;" parent="HZcYQYkoJH3neFrLHVz--1" vertex="1">
                    <mxGeometry x="560" y="155" width="120" height="60" as="geometry"/>
                </mxCell>
                <mxCell id="PcGRxaMygZ_Jv6-Lh2e1-0" value="Scheduler modules" style="rounded=0;whiteSpace=wrap;html=1;sketch=0;verticalAlign=top;" parent="HZcYQYkoJH3neFrLHVz--1" vertex="1">
                    <mxGeometry x="40" y="600" width="290" height="350" as="geometry"/>
                </mxCell>
                <mxCell id="PcGRxaMygZ_Jv6-Lh2e1-1" value="Check Providers" style="whiteSpace=wrap;html=1;rounded=1;sketch=0;" parent="HZcYQYkoJH3neFrLHVz--1" vertex="1">
                    <mxGeometry x="50" y="640" width="120" height="60" as="geometry"/>
                </mxCell>
                <mxCell id="PcGRxaMygZ_Jv6-Lh2e1-2" value="Billing" style="whiteSpace=wrap;html=1;rounded=1;sketch=0;" parent="HZcYQYkoJH3neFrLHVz--1" vertex="1">
                    <mxGeometry x="50" y="720" width="120" height="60" as="geometry"/>
                </mxCell>
                <mxCell id="PcGRxaMygZ_Jv6-Lh2e1-3" value="Logging/Audit" style="whiteSpace=wrap;html=1;rounded=1;sketch=0;" parent="HZcYQYkoJH3neFrLHVz--1" vertex="1">
                    <mxGeometry x="200" y="800" width="120" height="60" as="geometry"/>
                </mxCell>
                <mxCell id="PcGRxaMygZ_Jv6-Lh2e1-4" value="REST API" style="whiteSpace=wrap;html=1;rounded=1;sketch=0;" parent="HZcYQYkoJH3neFrLHVz--1" vertex="1">
                    <mxGeometry x="200" y="640" width="120" height="60" as="geometry"/>
                </mxCell>
                <mxCell id="pAJNyLX8mjIryDesC_92-0" value="Work with DB" style="whiteSpace=wrap;html=1;rounded=1;sketch=0;" parent="HZcYQYkoJH3neFrLHVz--1" vertex="1">
                    <mxGeometry x="200" y="720" width="120" height="60" as="geometry"/>
                </mxCell>
                <mxCell id="MIr6o0b0LZRGSccnrOue-0" value="Add new Agents" style="whiteSpace=wrap;html=1;rounded=1;sketch=0;" parent="HZcYQYkoJH3neFrLHVz--1" vertex="1">
                    <mxGeometry x="50" y="800" width="120" height="60" as="geometry"/>
                </mxCell>
                <mxCell id="Z9ifFWSkTcx1ikMZkLbi-0" value="Check Agents" style="whiteSpace=wrap;html=1;rounded=1;sketch=0;" parent="HZcYQYkoJH3neFrLHVz--1" vertex="1">
                    <mxGeometry x="50" y="880" width="120" height="60" as="geometry"/>
                </mxCell>
            </root>
        </mxGraphModel>
    </diagram>
    <diagram id="hd9w3-vgXE60JzlHBmsr" name="Module|Agent">
        <mxGraphModel dx="838" dy="488" grid="1" gridSize="10" guides="1" tooltips="1" connect="1" arrows="1" fold="1" page="1" pageScale="1" pageWidth="827" pageHeight="1169" math="0" shadow="0">
            <root>
                <mxCell id="pM1X5RBkX2XA5scC7ftx-0"/>
                <mxCell id="pM1X5RBkX2XA5scC7ftx-1" parent="pM1X5RBkX2XA5scC7ftx-0"/>
                <mxCell id="y70ZhfC6l_MqbK6S1iry-14" style="edgeStyle=orthogonalEdgeStyle;sketch=0;orthogonalLoop=1;jettySize=auto;html=1;entryX=0.5;entryY=1;entryDx=0;entryDy=0;shadow=0;fontColor=default;strokeColor=default;fillColor=default;dashed=1;fontSize=12;" parent="pM1X5RBkX2XA5scC7ftx-1" source="zIcrR0LGem0isJjwIuOH-0" target="y70ZhfC6l_MqbK6S1iry-3" edge="1">
                    <mxGeometry relative="1" as="geometry"/>
                </mxCell>
                <mxCell id="zIcrR0LGem0isJjwIuOH-0" value="KeyDB" style="shape=cylinder3;whiteSpace=wrap;html=1;boundedLbl=1;backgroundOutline=1;size=15;fontColor=default;strokeColor=default;fillColor=default;rounded=1;" parent="pM1X5RBkX2XA5scC7ftx-1" vertex="1">
                    <mxGeometry x="71" y="320" width="60" height="80" as="geometry"/>
                </mxCell>
                <mxCell id="y70ZhfC6l_MqbK6S1iry-7" value="" style="edgeStyle=orthogonalEdgeStyle;sketch=0;orthogonalLoop=1;jettySize=auto;html=1;shadow=0;fontColor=default;strokeColor=default;fillColor=default;fontSize=12;" parent="pM1X5RBkX2XA5scC7ftx-1" source="zIcrR0LGem0isJjwIuOH-1" target="y70ZhfC6l_MqbK6S1iry-6" edge="1">
                    <mxGeometry relative="1" as="geometry"/>
                </mxCell>
                <mxCell id="zIcrR0LGem0isJjwIuOH-1" value="Receive new tasks" style="rounded=1;whiteSpace=wrap;html=1;sketch=0;" parent="pM1X5RBkX2XA5scC7ftx-1" vertex="1">
                    <mxGeometry x="41" y="80" width="120" height="60" as="geometry"/>
                </mxCell>
                <mxCell id="y70ZhfC6l_MqbK6S1iry-1" style="edgeStyle=orthogonalEdgeStyle;sketch=0;orthogonalLoop=1;jettySize=auto;html=1;entryX=1;entryY=0.5;entryDx=0;entryDy=0;shadow=0;fontColor=default;exitX=0;exitY=0.5;exitDx=0;exitDy=0;fontSize=12;fillColor=default;" parent="pM1X5RBkX2XA5scC7ftx-1" source="y70ZhfC6l_MqbK6S1iry-0" target="zIcrR0LGem0isJjwIuOH-1" edge="1">
                    <mxGeometry relative="1" as="geometry">
                        <mxPoint x="301" y="110" as="sourcePoint"/>
                    </mxGeometry>
                </mxCell>
                <mxCell id="y70ZhfC6l_MqbK6S1iry-2" value="Yes" style="edgeLabel;html=1;align=center;verticalAlign=middle;resizable=0;points=[];fontColor=default;fontSize=12;fillColor=default;strokeColor=default;rounded=1;" parent="y70ZhfC6l_MqbK6S1iry-1" vertex="1" connectable="0">
                    <mxGeometry x="-0.3" relative="1" as="geometry">
                        <mxPoint as="offset"/>
                    </mxGeometry>
                </mxCell>
                <mxCell id="y70ZhfC6l_MqbK6S1iry-4" style="edgeStyle=orthogonalEdgeStyle;sketch=0;orthogonalLoop=1;jettySize=auto;html=1;entryX=0;entryY=0.5;entryDx=0;entryDy=0;shadow=0;fontColor=default;strokeColor=default;fillColor=default;fontSize=12;" parent="pM1X5RBkX2XA5scC7ftx-1" source="y70ZhfC6l_MqbK6S1iry-0" target="y70ZhfC6l_MqbK6S1iry-3" edge="1">
                    <mxGeometry relative="1" as="geometry">
                        <Array as="points">
                            <mxPoint x="391" y="110"/>
                            <mxPoint x="391" y="110"/>
                        </Array>
                    </mxGeometry>
                </mxCell>
                <mxCell id="y70ZhfC6l_MqbK6S1iry-5" value="No" style="edgeLabel;html=1;align=center;verticalAlign=middle;resizable=0;points=[];fontColor=default;fontSize=12;fillColor=default;strokeColor=default;rounded=1;" parent="y70ZhfC6l_MqbK6S1iry-4" vertex="1" connectable="0">
                    <mxGeometry x="-0.6571" relative="1" as="geometry">
                        <mxPoint x="16" as="offset"/>
                    </mxGeometry>
                </mxCell>
                <mxCell id="y70ZhfC6l_MqbK6S1iry-0" value="&lt;span&gt;Check new tasks&lt;/span&gt;" style="shape=hexagon;perimeter=hexagonPerimeter2;whiteSpace=wrap;html=1;fixedSize=1;rounded=0;" parent="pM1X5RBkX2XA5scC7ftx-1" vertex="1">
                    <mxGeometry x="241" y="70" width="120" height="80" as="geometry"/>
                </mxCell>
                <mxCell id="y70ZhfC6l_MqbK6S1iry-16" value="" style="edgeStyle=orthogonalEdgeStyle;sketch=0;orthogonalLoop=1;jettySize=auto;html=1;shadow=0;fontColor=default;strokeColor=default;fillColor=default;fontSize=12;" parent="pM1X5RBkX2XA5scC7ftx-1" source="y70ZhfC6l_MqbK6S1iry-3" target="y70ZhfC6l_MqbK6S1iry-15" edge="1">
                    <mxGeometry relative="1" as="geometry"/>
                </mxCell>
                <mxCell id="y70ZhfC6l_MqbK6S1iry-3" value="Read DB" style="rounded=1;whiteSpace=wrap;html=1;fontColor=default;strokeColor=default;fillColor=default;" parent="pM1X5RBkX2XA5scC7ftx-1" vertex="1">
                    <mxGeometry x="441" y="80" width="120" height="60" as="geometry"/>
                </mxCell>
                <mxCell id="y70ZhfC6l_MqbK6S1iry-8" style="edgeStyle=orthogonalEdgeStyle;sketch=0;orthogonalLoop=1;jettySize=auto;html=1;entryX=0.5;entryY=0;entryDx=0;entryDy=0;entryPerimeter=0;shadow=0;fontColor=default;strokeColor=default;fillColor=default;dashed=1;fontSize=12;" parent="pM1X5RBkX2XA5scC7ftx-1" source="y70ZhfC6l_MqbK6S1iry-6" target="zIcrR0LGem0isJjwIuOH-0" edge="1">
                    <mxGeometry relative="1" as="geometry"/>
                </mxCell>
                <mxCell id="y70ZhfC6l_MqbK6S1iry-10" value="" style="edgeStyle=orthogonalEdgeStyle;sketch=0;orthogonalLoop=1;jettySize=auto;html=1;shadow=0;fontColor=default;strokeColor=default;fillColor=default;fontSize=12;" parent="pM1X5RBkX2XA5scC7ftx-1" source="y70ZhfC6l_MqbK6S1iry-6" target="y70ZhfC6l_MqbK6S1iry-9" edge="1">
                    <mxGeometry relative="1" as="geometry"/>
                </mxCell>
                <mxCell id="y70ZhfC6l_MqbK6S1iry-6" value="Insert to Local DB/Create new jobs" style="rounded=1;whiteSpace=wrap;html=1;fontColor=default;strokeColor=default;fillColor=default;" parent="pM1X5RBkX2XA5scC7ftx-1" vertex="1">
                    <mxGeometry x="41" y="200" width="120" height="60" as="geometry"/>
                </mxCell>
                <mxCell id="y70ZhfC6l_MqbK6S1iry-12" value="" style="edgeStyle=orthogonalEdgeStyle;sketch=0;orthogonalLoop=1;jettySize=auto;html=1;shadow=0;fontColor=default;strokeColor=default;fillColor=default;fontSize=12;" parent="pM1X5RBkX2XA5scC7ftx-1" source="y70ZhfC6l_MqbK6S1iry-9" target="y70ZhfC6l_MqbK6S1iry-11" edge="1">
                    <mxGeometry relative="1" as="geometry"/>
                </mxCell>
                <mxCell id="y70ZhfC6l_MqbK6S1iry-9" value="Execute jobs" style="whiteSpace=wrap;html=1;fillColor=default;strokeColor=default;fontColor=default;rounded=1;" parent="pM1X5RBkX2XA5scC7ftx-1" vertex="1">
                    <mxGeometry x="200" y="200" width="120" height="60" as="geometry"/>
                </mxCell>
                <mxCell id="y70ZhfC6l_MqbK6S1iry-13" style="edgeStyle=orthogonalEdgeStyle;sketch=0;orthogonalLoop=1;jettySize=auto;html=1;shadow=0;fontColor=default;strokeColor=default;fillColor=default;dashed=1;fontSize=12;exitX=0.5;exitY=1;exitDx=0;exitDy=0;entryX=1;entryY=0;entryDx=0;entryDy=27.5;entryPerimeter=0;" parent="pM1X5RBkX2XA5scC7ftx-1" source="y70ZhfC6l_MqbK6S1iry-11" target="zIcrR0LGem0isJjwIuOH-0" edge="1">
                    <mxGeometry relative="1" as="geometry">
                        <mxPoint x="197" y="340" as="targetPoint"/>
                    </mxGeometry>
                </mxCell>
                <mxCell id="dOUNJ-RE-yO70XFHQjGu-4" style="edgeStyle=orthogonalEdgeStyle;rounded=1;sketch=0;orthogonalLoop=1;jettySize=auto;html=1;entryX=0.625;entryY=1;entryDx=0;entryDy=0;shadow=0;fontColor=default;strokeColor=default;fillColor=default;exitX=0.5;exitY=0;exitDx=0;exitDy=0;fontSize=12;" parent="pM1X5RBkX2XA5scC7ftx-1" source="y70ZhfC6l_MqbK6S1iry-11" target="y70ZhfC6l_MqbK6S1iry-0" edge="1">
                    <mxGeometry relative="1" as="geometry">
                        <Array as="points">
                            <mxPoint x="421" y="170"/>
                            <mxPoint x="316" y="170"/>
                        </Array>
                    </mxGeometry>
                </mxCell>
                <mxCell id="y70ZhfC6l_MqbK6S1iry-11" value="Insert to Local DB/Save result job" style="whiteSpace=wrap;html=1;fillColor=default;strokeColor=default;fontColor=default;rounded=1;" parent="pM1X5RBkX2XA5scC7ftx-1" vertex="1">
                    <mxGeometry x="361" y="200" width="120" height="60" as="geometry"/>
                </mxCell>
                <mxCell id="dOUNJ-RE-yO70XFHQjGu-1" value="" style="edgeStyle=orthogonalEdgeStyle;rounded=1;sketch=0;orthogonalLoop=1;jettySize=auto;html=1;shadow=0;fontColor=default;strokeColor=default;fillColor=default;fontSize=12;" parent="pM1X5RBkX2XA5scC7ftx-1" source="y70ZhfC6l_MqbK6S1iry-15" target="dOUNJ-RE-yO70XFHQjGu-0" edge="1">
                    <mxGeometry relative="1" as="geometry"/>
                </mxCell>
                <mxCell id="y70ZhfC6l_MqbK6S1iry-15" value="Send status to API Server" style="whiteSpace=wrap;html=1;fillColor=default;strokeColor=default;fontColor=default;rounded=1;" parent="pM1X5RBkX2XA5scC7ftx-1" vertex="1">
                    <mxGeometry x="641" y="80" width="120" height="60" as="geometry"/>
                </mxCell>
                <mxCell id="dOUNJ-RE-yO70XFHQjGu-2" style="edgeStyle=orthogonalEdgeStyle;rounded=1;sketch=0;orthogonalLoop=1;jettySize=auto;html=1;entryX=1;entryY=0;entryDx=0;entryDy=52.5;entryPerimeter=0;shadow=0;fontColor=default;strokeColor=default;fillColor=default;dashed=1;fontSize=12;" parent="pM1X5RBkX2XA5scC7ftx-1" source="dOUNJ-RE-yO70XFHQjGu-0" target="zIcrR0LGem0isJjwIuOH-0" edge="1">
                    <mxGeometry relative="1" as="geometry">
                        <Array as="points">
                            <mxPoint x="701" y="373"/>
                        </Array>
                    </mxGeometry>
                </mxCell>
                <mxCell id="dOUNJ-RE-yO70XFHQjGu-3" style="edgeStyle=orthogonalEdgeStyle;rounded=1;sketch=0;orthogonalLoop=1;jettySize=auto;html=1;entryX=0.625;entryY=0;entryDx=0;entryDy=0;shadow=0;fontColor=default;strokeColor=default;fillColor=default;fontSize=12;" parent="pM1X5RBkX2XA5scC7ftx-1" source="dOUNJ-RE-yO70XFHQjGu-0" target="y70ZhfC6l_MqbK6S1iry-0" edge="1">
                    <mxGeometry relative="1" as="geometry">
                        <Array as="points">
                            <mxPoint x="787" y="250"/>
                            <mxPoint x="787" y="50"/>
                            <mxPoint x="316" y="50"/>
                        </Array>
                    </mxGeometry>
                </mxCell>
                <mxCell id="dOUNJ-RE-yO70XFHQjGu-0" value="Clear DB" style="whiteSpace=wrap;html=1;fillColor=default;strokeColor=default;fontColor=default;rounded=1;" parent="pM1X5RBkX2XA5scC7ftx-1" vertex="1">
                    <mxGeometry x="641" y="200" width="120" height="60" as="geometry"/>
                </mxCell>
                <mxCell id="8UrA2xH2w5rE8SnDH6KZ-0" value="Agent modules" style="rounded=0;whiteSpace=wrap;html=1;sketch=0;verticalAlign=top;" parent="pM1X5RBkX2XA5scC7ftx-1" vertex="1">
                    <mxGeometry x="40" y="600" width="290" height="270" as="geometry"/>
                </mxCell>
                <mxCell id="8UrA2xH2w5rE8SnDH6KZ-1" value="Executer" style="whiteSpace=wrap;html=1;rounded=1;sketch=0;" parent="pM1X5RBkX2XA5scC7ftx-1" vertex="1">
                    <mxGeometry x="50" y="640" width="120" height="60" as="geometry"/>
                </mxCell>
                <mxCell id="8UrA2xH2w5rE8SnDH6KZ-2" value="ping" style="whiteSpace=wrap;html=1;rounded=1;sketch=0;" parent="pM1X5RBkX2XA5scC7ftx-1" vertex="1">
                    <mxGeometry x="50" y="720" width="120" height="60" as="geometry"/>
                </mxCell>
                <mxCell id="8UrA2xH2w5rE8SnDH6KZ-3" value="Metrics/Logging/Audit" style="whiteSpace=wrap;html=1;rounded=1;sketch=0;" parent="pM1X5RBkX2XA5scC7ftx-1" vertex="1">
                    <mxGeometry x="200" y="800" width="120" height="60" as="geometry"/>
                </mxCell>
                <mxCell id="8UrA2xH2w5rE8SnDH6KZ-4" value="REST API" style="whiteSpace=wrap;html=1;rounded=1;sketch=0;" parent="pM1X5RBkX2XA5scC7ftx-1" vertex="1">
                    <mxGeometry x="200" y="640" width="120" height="60" as="geometry"/>
                </mxCell>
                <mxCell id="8UrA2xH2w5rE8SnDH6KZ-5" value="Work with DB" style="whiteSpace=wrap;html=1;rounded=1;sketch=0;" parent="pM1X5RBkX2XA5scC7ftx-1" vertex="1">
                    <mxGeometry x="200" y="720" width="120" height="60" as="geometry"/>
                </mxCell>
                <mxCell id="8UrA2xH2w5rE8SnDH6KZ-6" value="http" style="whiteSpace=wrap;html=1;rounded=1;sketch=0;" parent="pM1X5RBkX2XA5scC7ftx-1" vertex="1">
                    <mxGeometry x="50" y="800" width="120" height="60" as="geometry"/>
                </mxCell>
            </root>
        </mxGraphModel>
    </diagram>
    <diagram id="NPOtdJ7wC6nqo1ExqrV7" name="DB">
        <mxGraphModel dx="868" dy="563" grid="1" gridSize="10" guides="1" tooltips="1" connect="1" arrows="1" fold="1" page="1" pageScale="1" pageWidth="827" pageHeight="1169" math="0" shadow="0">
            <root>
                <mxCell id="YnU1zZ8jJRjlCIdMFHXs-0"/>
                <mxCell id="YnU1zZ8jJRjlCIdMFHXs-1" parent="YnU1zZ8jJRjlCIdMFHXs-0"/>
                <mxCell id="YnU1zZ8jJRjlCIdMFHXs-3" value="users" style="swimlane;fontStyle=0;childLayout=stackLayout;horizontal=1;startSize=30;horizontalStack=0;resizeParent=1;resizeParentMax=0;resizeLast=0;collapsible=1;marginBottom=0;rounded=0;sketch=0;" parent="YnU1zZ8jJRjlCIdMFHXs-1" vertex="1">
                    <mxGeometry x="80" y="40" width="80" height="270" as="geometry"/>
                </mxCell>
                <mxCell id="YnU1zZ8jJRjlCIdMFHXs-4" value="id" style="text;align=left;verticalAlign=middle;spacingLeft=4;spacingRight=4;overflow=hidden;points=[[0,0.5],[1,0.5]];portConstraint=eastwest;rotatable=0;rounded=0;sketch=0;" parent="YnU1zZ8jJRjlCIdMFHXs-3" vertex="1">
                    <mxGeometry y="30" width="80" height="30" as="geometry"/>
                </mxCell>
                <mxCell id="YnU1zZ8jJRjlCIdMFHXs-5" value="name" style="text;align=left;verticalAlign=middle;spacingLeft=4;spacingRight=4;overflow=hidden;points=[[0,0.5],[1,0.5]];portConstraint=eastwest;rotatable=0;rounded=0;sketch=0;" parent="YnU1zZ8jJRjlCIdMFHXs-3" vertex="1">
                    <mxGeometry y="60" width="80" height="30" as="geometry"/>
                </mxCell>
                <mxCell id="YnU1zZ8jJRjlCIdMFHXs-6" value="role_id" style="text;align=left;verticalAlign=middle;spacingLeft=4;spacingRight=4;overflow=hidden;points=[[0,0.5],[1,0.5]];portConstraint=eastwest;rotatable=0;rounded=0;sketch=0;" parent="YnU1zZ8jJRjlCIdMFHXs-3" vertex="1">
                    <mxGeometry y="90" width="80" height="30" as="geometry"/>
                </mxCell>
                <mxCell id="YnU1zZ8jJRjlCIdMFHXs-23" value="group_id" style="text;align=left;verticalAlign=middle;spacingLeft=4;spacingRight=4;overflow=hidden;points=[[0,0.5],[1,0.5]];portConstraint=eastwest;rotatable=0;rounded=0;sketch=0;" parent="YnU1zZ8jJRjlCIdMFHXs-3" vertex="1">
                    <mxGeometry y="120" width="80" height="30" as="geometry"/>
                </mxCell>
                <mxCell id="Y63EwKKuBG8s6ms2-5f4-18" value="email" style="text;align=left;verticalAlign=middle;spacingLeft=4;spacingRight=4;overflow=hidden;points=[[0,0.5],[1,0.5]];portConstraint=eastwest;rotatable=0;rounded=0;sketch=0;" parent="YnU1zZ8jJRjlCIdMFHXs-3" vertex="1">
                    <mxGeometry y="150" width="80" height="30" as="geometry"/>
                </mxCell>
                <mxCell id="Y63EwKKuBG8s6ms2-5f4-20" value="phone" style="text;align=left;verticalAlign=middle;spacingLeft=4;spacingRight=4;overflow=hidden;points=[[0,0.5],[1,0.5]];portConstraint=eastwest;rotatable=0;rounded=0;sketch=0;" parent="YnU1zZ8jJRjlCIdMFHXs-3" vertex="1">
                    <mxGeometry y="180" width="80" height="30" as="geometry"/>
                </mxCell>
                <mxCell id="Y63EwKKuBG8s6ms2-5f4-19" value="passwd" style="text;align=left;verticalAlign=middle;spacingLeft=4;spacingRight=4;overflow=hidden;points=[[0,0.5],[1,0.5]];portConstraint=eastwest;rotatable=0;rounded=0;sketch=0;" parent="YnU1zZ8jJRjlCIdMFHXs-3" vertex="1">
                    <mxGeometry y="210" width="80" height="30" as="geometry"/>
                </mxCell>
                <mxCell id="Y63EwKKuBG8s6ms2-5f4-25" value="comm_id" style="text;align=left;verticalAlign=middle;spacingLeft=4;spacingRight=4;overflow=hidden;points=[[0,0.5],[1,0.5]];portConstraint=eastwest;rotatable=0;rounded=0;sketch=0;" parent="YnU1zZ8jJRjlCIdMFHXs-3" vertex="1">
                    <mxGeometry y="240" width="80" height="30" as="geometry"/>
                </mxCell>
                <mxCell id="YnU1zZ8jJRjlCIdMFHXs-7" value="roles" style="swimlane;fontStyle=0;childLayout=stackLayout;horizontal=1;startSize=30;horizontalStack=0;resizeParent=1;resizeParentMax=0;resizeLast=0;collapsible=1;marginBottom=0;rounded=0;sketch=0;" parent="YnU1zZ8jJRjlCIdMFHXs-1" vertex="1">
                    <mxGeometry x="200" y="40" width="200" height="120" as="geometry"/>
                </mxCell>
                <mxCell id="YnU1zZ8jJRjlCIdMFHXs-8" value="id" style="text;align=left;verticalAlign=middle;spacingLeft=4;spacingRight=4;overflow=hidden;points=[[0,0.5],[1,0.5]];portConstraint=eastwest;rotatable=0;rounded=0;sketch=0;" parent="YnU1zZ8jJRjlCIdMFHXs-7" vertex="1">
                    <mxGeometry y="30" width="200" height="30" as="geometry"/>
                </mxCell>
                <mxCell id="YnU1zZ8jJRjlCIdMFHXs-9" value="name" style="text;align=left;verticalAlign=middle;spacingLeft=4;spacingRight=4;overflow=hidden;points=[[0,0.5],[1,0.5]];portConstraint=eastwest;rotatable=0;rounded=0;sketch=0;" parent="YnU1zZ8jJRjlCIdMFHXs-7" vertex="1">
                    <mxGeometry y="60" width="200" height="30" as="geometry"/>
                </mxCell>
                <mxCell id="YnU1zZ8jJRjlCIdMFHXs-10" value="read/read_update/create_read_update_delete" style="text;align=left;verticalAlign=middle;spacingLeft=4;spacingRight=4;overflow=hidden;points=[[0,0.5],[1,0.5]];portConstraint=eastwest;rotatable=0;rounded=0;sketch=0;" parent="YnU1zZ8jJRjlCIdMFHXs-7" vertex="1">
                    <mxGeometry y="90" width="200" height="30" as="geometry"/>
                </mxCell>
                <mxCell id="YnU1zZ8jJRjlCIdMFHXs-11" value="providers" style="swimlane;fontStyle=0;childLayout=stackLayout;horizontal=1;startSize=30;horizontalStack=0;resizeParent=1;resizeParentMax=0;resizeLast=0;collapsible=1;marginBottom=0;rounded=0;sketch=0;fontFamily=Helvetica;" parent="YnU1zZ8jJRjlCIdMFHXs-1" vertex="1">
                    <mxGeometry x="440" y="40" width="80" height="150" as="geometry"/>
                </mxCell>
                <mxCell id="YnU1zZ8jJRjlCIdMFHXs-12" value="id" style="text;align=left;verticalAlign=middle;spacingLeft=4;spacingRight=4;overflow=hidden;points=[[0,0.5],[1,0.5]];portConstraint=eastwest;rotatable=0;rounded=0;sketch=0;" parent="YnU1zZ8jJRjlCIdMFHXs-11" vertex="1">
                    <mxGeometry y="30" width="80" height="30" as="geometry"/>
                </mxCell>
                <mxCell id="YnU1zZ8jJRjlCIdMFHXs-13" value="name" style="text;align=left;verticalAlign=middle;spacingLeft=4;spacingRight=4;overflow=hidden;points=[[0,0.5],[1,0.5]];portConstraint=eastwest;rotatable=0;rounded=0;sketch=0;" parent="YnU1zZ8jJRjlCIdMFHXs-11" vertex="1">
                    <mxGeometry y="60" width="80" height="30" as="geometry"/>
                </mxCell>
                <mxCell id="YnU1zZ8jJRjlCIdMFHXs-14" value="region_id" style="text;align=left;verticalAlign=middle;spacingLeft=4;spacingRight=4;overflow=hidden;points=[[0,0.5],[1,0.5]];portConstraint=eastwest;rotatable=0;rounded=0;sketch=0;" parent="YnU1zZ8jJRjlCIdMFHXs-11" vertex="1">
                    <mxGeometry y="90" width="80" height="30" as="geometry"/>
                </mxCell>
                <mxCell id="Y63EwKKuBG8s6ms2-5f4-15" value="type_id" style="text;align=left;verticalAlign=middle;spacingLeft=4;spacingRight=4;overflow=hidden;points=[[0,0.5],[1,0.5]];portConstraint=eastwest;rotatable=0;rounded=0;sketch=0;" parent="YnU1zZ8jJRjlCIdMFHXs-11" vertex="1">
                    <mxGeometry y="120" width="80" height="30" as="geometry"/>
                </mxCell>
                <mxCell id="YnU1zZ8jJRjlCIdMFHXs-15" value="regions" style="swimlane;fontStyle=0;childLayout=stackLayout;horizontal=1;startSize=30;horizontalStack=0;resizeParent=1;resizeParentMax=0;resizeLast=0;collapsible=1;marginBottom=0;rounded=0;sketch=0;" parent="YnU1zZ8jJRjlCIdMFHXs-1" vertex="1">
                    <mxGeometry x="560" y="40" width="140" height="90" as="geometry"/>
                </mxCell>
                <mxCell id="YnU1zZ8jJRjlCIdMFHXs-16" value="id" style="text;align=left;verticalAlign=middle;spacingLeft=4;spacingRight=4;overflow=hidden;points=[[0,0.5],[1,0.5]];portConstraint=eastwest;rotatable=0;rounded=0;sketch=0;" parent="YnU1zZ8jJRjlCIdMFHXs-15" vertex="1">
                    <mxGeometry y="30" width="140" height="30" as="geometry"/>
                </mxCell>
                <mxCell id="YnU1zZ8jJRjlCIdMFHXs-17" value="name" style="text;align=left;verticalAlign=middle;spacingLeft=4;spacingRight=4;overflow=hidden;points=[[0,0.5],[1,0.5]];portConstraint=eastwest;rotatable=0;rounded=0;sketch=0;" parent="YnU1zZ8jJRjlCIdMFHXs-15" vertex="1">
                    <mxGeometry y="60" width="140" height="30" as="geometry"/>
                </mxCell>
                <mxCell id="YnU1zZ8jJRjlCIdMFHXs-19" value="groups" style="swimlane;fontStyle=0;childLayout=stackLayout;horizontal=1;startSize=30;horizontalStack=0;resizeParent=1;resizeParentMax=0;resizeLast=0;collapsible=1;marginBottom=0;rounded=0;sketch=0;" parent="YnU1zZ8jJRjlCIdMFHXs-1" vertex="1">
                    <mxGeometry x="200" y="200" width="140" height="90" as="geometry"/>
                </mxCell>
                <mxCell id="YnU1zZ8jJRjlCIdMFHXs-20" value="id" style="text;align=left;verticalAlign=middle;spacingLeft=4;spacingRight=4;overflow=hidden;points=[[0,0.5],[1,0.5]];portConstraint=eastwest;rotatable=0;rounded=0;sketch=0;" parent="YnU1zZ8jJRjlCIdMFHXs-19" vertex="1">
                    <mxGeometry y="30" width="140" height="30" as="geometry"/>
                </mxCell>
                <mxCell id="YnU1zZ8jJRjlCIdMFHXs-21" value="name" style="text;align=left;verticalAlign=middle;spacingLeft=4;spacingRight=4;overflow=hidden;points=[[0,0.5],[1,0.5]];portConstraint=eastwest;rotatable=0;rounded=0;sketch=0;" parent="YnU1zZ8jJRjlCIdMFHXs-19" vertex="1">
                    <mxGeometry y="60" width="140" height="30" as="geometry"/>
                </mxCell>
                <mxCell id="YnU1zZ8jJRjlCIdMFHXs-24" value="provider_types" style="swimlane;fontStyle=0;childLayout=stackLayout;horizontal=1;startSize=30;horizontalStack=0;resizeParent=1;resizeParentMax=0;resizeLast=0;collapsible=1;marginBottom=0;rounded=0;sketch=0;" parent="YnU1zZ8jJRjlCIdMFHXs-1" vertex="1">
                    <mxGeometry x="560" y="160" width="140" height="120" as="geometry"/>
                </mxCell>
                <mxCell id="YnU1zZ8jJRjlCIdMFHXs-25" value="id" style="text;align=left;verticalAlign=middle;spacingLeft=4;spacingRight=4;overflow=hidden;points=[[0,0.5],[1,0.5]];portConstraint=eastwest;rotatable=0;rounded=0;sketch=0;" parent="YnU1zZ8jJRjlCIdMFHXs-24" vertex="1">
                    <mxGeometry y="30" width="140" height="30" as="geometry"/>
                </mxCell>
                <mxCell id="YnU1zZ8jJRjlCIdMFHXs-26" value="name (VM/FaaS/etc)" style="text;align=left;verticalAlign=middle;spacingLeft=4;spacingRight=4;overflow=hidden;points=[[0,0.5],[1,0.5]];portConstraint=eastwest;rotatable=0;rounded=0;sketch=0;" parent="YnU1zZ8jJRjlCIdMFHXs-24" vertex="1">
                    <mxGeometry y="60" width="140" height="30" as="geometry"/>
                </mxCell>
                <mxCell id="YnU1zZ8jJRjlCIdMFHXs-29" value="latency" style="text;align=left;verticalAlign=middle;spacingLeft=4;spacingRight=4;overflow=hidden;points=[[0,0.5],[1,0.5]];portConstraint=eastwest;rotatable=0;rounded=0;sketch=0;" parent="YnU1zZ8jJRjlCIdMFHXs-24" vertex="1">
                    <mxGeometry y="90" width="140" height="30" as="geometry"/>
                </mxCell>
                <mxCell id="Y63EwKKuBG8s6ms2-5f4-0" value="jobs" style="swimlane;fontStyle=0;childLayout=stackLayout;horizontal=1;startSize=30;horizontalStack=0;resizeParent=1;resizeParentMax=0;resizeLast=0;collapsible=1;marginBottom=0;rounded=0;sketch=0;" parent="YnU1zZ8jJRjlCIdMFHXs-1" vertex="1">
                    <mxGeometry x="440" y="360" width="120" height="270" as="geometry"/>
                </mxCell>
                <mxCell id="Y63EwKKuBG8s6ms2-5f4-1" value="id" style="text;align=left;verticalAlign=middle;spacingLeft=4;spacingRight=4;overflow=hidden;points=[[0,0.5],[1,0.5]];portConstraint=eastwest;rotatable=0;rounded=0;sketch=0;" parent="Y63EwKKuBG8s6ms2-5f4-0" vertex="1">
                    <mxGeometry y="30" width="120" height="30" as="geometry"/>
                </mxCell>
                <mxCell id="Y63EwKKuBG8s6ms2-5f4-2" value="job_type_id" style="text;align=left;verticalAlign=middle;spacingLeft=4;spacingRight=4;overflow=hidden;points=[[0,0.5],[1,0.5]];portConstraint=eastwest;rotatable=0;rounded=0;sketch=0;" parent="Y63EwKKuBG8s6ms2-5f4-0" vertex="1">
                    <mxGeometry y="60" width="120" height="30" as="geometry"/>
                </mxCell>
                <mxCell id="cdguINuAkizJDKE-LRSd-3" value="type_id" style="text;align=left;verticalAlign=middle;spacingLeft=4;spacingRight=4;overflow=hidden;points=[[0,0.5],[1,0.5]];portConstraint=eastwest;rotatable=0;rounded=0;sketch=0;" parent="Y63EwKKuBG8s6ms2-5f4-0" vertex="1">
                    <mxGeometry y="90" width="120" height="30" as="geometry"/>
                </mxCell>
                <mxCell id="cdguINuAkizJDKE-LRSd-1" value="region_id" style="text;align=left;verticalAlign=middle;spacingLeft=4;spacingRight=4;overflow=hidden;points=[[0,0.5],[1,0.5]];portConstraint=eastwest;rotatable=0;rounded=0;sketch=0;" parent="Y63EwKKuBG8s6ms2-5f4-0" vertex="1">
                    <mxGeometry y="120" width="120" height="30" as="geometry"/>
                </mxCell>
                <mxCell id="Y63EwKKuBG8s6ms2-5f4-3" value="provider_id" style="text;align=left;verticalAlign=middle;spacingLeft=4;spacingRight=4;overflow=hidden;points=[[0,0.5],[1,0.5]];portConstraint=eastwest;rotatable=0;rounded=0;sketch=0;" parent="Y63EwKKuBG8s6ms2-5f4-0" vertex="1">
                    <mxGeometry y="150" width="120" height="30" as="geometry"/>
                </mxCell>
                <mxCell id="BtY6kqehKxjnLXZXNUI0-3" value="rate" style="text;align=left;verticalAlign=middle;spacingLeft=4;spacingRight=4;overflow=hidden;points=[[0,0.5],[1,0.5]];portConstraint=eastwest;rotatable=0;rounded=0;sketch=0;" parent="Y63EwKKuBG8s6ms2-5f4-0" vertex="1">
                    <mxGeometry y="180" width="120" height="30" as="geometry"/>
                </mxCell>
                <mxCell id="BtY6kqehKxjnLXZXNUI0-2" value="source" style="text;align=left;verticalAlign=middle;spacingLeft=4;spacingRight=4;overflow=hidden;points=[[0,0.5],[1,0.5]];portConstraint=eastwest;rotatable=0;rounded=0;sketch=0;" parent="Y63EwKKuBG8s6ms2-5f4-0" vertex="1">
                    <mxGeometry y="210" width="120" height="30" as="geometry"/>
                </mxCell>
                <mxCell id="X0o5svCrNW90flhc7Rnt-0" value="group_id" style="text;align=left;verticalAlign=middle;spacingLeft=4;spacingRight=4;overflow=hidden;points=[[0,0.5],[1,0.5]];portConstraint=eastwest;rotatable=0;rounded=0;sketch=0;" parent="Y63EwKKuBG8s6ms2-5f4-0" vertex="1">
                    <mxGeometry y="240" width="120" height="30" as="geometry"/>
                </mxCell>
                <mxCell id="Y63EwKKuBG8s6ms2-5f4-4" value="job_types" style="swimlane;fontStyle=0;childLayout=stackLayout;horizontal=1;startSize=30;horizontalStack=0;resizeParent=1;resizeParentMax=0;resizeLast=0;collapsible=1;marginBottom=0;rounded=0;sketch=0;" parent="YnU1zZ8jJRjlCIdMFHXs-1" vertex="1">
                    <mxGeometry x="600" y="360" width="160" height="120" as="geometry"/>
                </mxCell>
                <mxCell id="Y63EwKKuBG8s6ms2-5f4-5" value="id" style="text;align=left;verticalAlign=middle;spacingLeft=4;spacingRight=4;overflow=hidden;points=[[0,0.5],[1,0.5]];portConstraint=eastwest;rotatable=0;rounded=0;sketch=0;" parent="Y63EwKKuBG8s6ms2-5f4-4" vertex="1">
                    <mxGeometry y="30" width="160" height="30" as="geometry"/>
                </mxCell>
                <mxCell id="Y63EwKKuBG8s6ms2-5f4-6" value="name (ping/http_get/etc)" style="text;align=left;verticalAlign=middle;spacingLeft=4;spacingRight=4;overflow=hidden;points=[[0,0.5],[1,0.5]];portConstraint=eastwest;rotatable=0;rounded=0;sketch=0;" parent="Y63EwKKuBG8s6ms2-5f4-4" vertex="1">
                    <mxGeometry y="60" width="160" height="30" as="geometry"/>
                </mxCell>
                <mxCell id="Y63EwKKuBG8s6ms2-5f4-10" value="template..." style="text;align=left;verticalAlign=middle;spacingLeft=4;spacingRight=4;overflow=hidden;points=[[0,0.5],[1,0.5]];portConstraint=eastwest;rotatable=0;rounded=0;sketch=0;" parent="Y63EwKKuBG8s6ms2-5f4-4" vertex="1">
                    <mxGeometry y="90" width="160" height="30" as="geometry"/>
                </mxCell>
                <mxCell id="Y63EwKKuBG8s6ms2-5f4-12" style="edgeStyle=orthogonalEdgeStyle;rounded=1;orthogonalLoop=1;jettySize=auto;html=1;entryX=0;entryY=0.5;entryDx=0;entryDy=0;startArrow=none;startFill=0;endArrow=classic;endFill=1;fontColor=#46495D;sketch=0;" parent="YnU1zZ8jJRjlCIdMFHXs-1" source="YnU1zZ8jJRjlCIdMFHXs-23" target="YnU1zZ8jJRjlCIdMFHXs-20" edge="1">
                    <mxGeometry relative="1" as="geometry"/>
                </mxCell>
                <mxCell id="Y63EwKKuBG8s6ms2-5f4-13" style="edgeStyle=orthogonalEdgeStyle;rounded=1;orthogonalLoop=1;jettySize=auto;html=1;startArrow=none;startFill=0;endArrow=classic;endFill=1;fontColor=#46495D;sketch=0;" parent="YnU1zZ8jJRjlCIdMFHXs-1" source="YnU1zZ8jJRjlCIdMFHXs-6" target="YnU1zZ8jJRjlCIdMFHXs-8" edge="1">
                    <mxGeometry relative="1" as="geometry"/>
                </mxCell>
                <mxCell id="Y63EwKKuBG8s6ms2-5f4-14" style="edgeStyle=orthogonalEdgeStyle;rounded=1;orthogonalLoop=1;jettySize=auto;html=1;startArrow=none;startFill=0;endArrow=classic;endFill=1;fontColor=#46495D;sketch=0;" parent="YnU1zZ8jJRjlCIdMFHXs-1" source="YnU1zZ8jJRjlCIdMFHXs-14" target="YnU1zZ8jJRjlCIdMFHXs-16" edge="1">
                    <mxGeometry relative="1" as="geometry"/>
                </mxCell>
                <mxCell id="Y63EwKKuBG8s6ms2-5f4-16" style="edgeStyle=orthogonalEdgeStyle;rounded=1;orthogonalLoop=1;jettySize=auto;html=1;startArrow=none;startFill=0;endArrow=classic;endFill=1;fontColor=#46495D;sketch=0;" parent="YnU1zZ8jJRjlCIdMFHXs-1" source="Y63EwKKuBG8s6ms2-5f4-15" target="YnU1zZ8jJRjlCIdMFHXs-25" edge="1">
                    <mxGeometry relative="1" as="geometry"/>
                </mxCell>
                <mxCell id="Y63EwKKuBG8s6ms2-5f4-17" style="edgeStyle=orthogonalEdgeStyle;rounded=1;orthogonalLoop=1;jettySize=auto;html=1;startArrow=none;startFill=0;endArrow=classic;endFill=1;fontColor=#46495D;sketch=0;" parent="YnU1zZ8jJRjlCIdMFHXs-1" source="Y63EwKKuBG8s6ms2-5f4-2" target="Y63EwKKuBG8s6ms2-5f4-5" edge="1">
                    <mxGeometry relative="1" as="geometry"/>
                </mxCell>
                <mxCell id="Y63EwKKuBG8s6ms2-5f4-21" value="alert_communicate" style="swimlane;fontStyle=0;childLayout=stackLayout;horizontal=1;startSize=30;horizontalStack=0;resizeParent=1;resizeParentMax=0;resizeLast=0;collapsible=1;marginBottom=0;rounded=0;sketch=0;" parent="YnU1zZ8jJRjlCIdMFHXs-1" vertex="1">
                    <mxGeometry x="80" y="360" width="200" height="150" as="geometry"/>
                </mxCell>
                <mxCell id="Y63EwKKuBG8s6ms2-5f4-22" value="id" style="text;align=left;verticalAlign=middle;spacingLeft=4;spacingRight=4;overflow=hidden;points=[[0,0.5],[1,0.5]];portConstraint=eastwest;rotatable=0;rounded=0;sketch=0;" parent="Y63EwKKuBG8s6ms2-5f4-21" vertex="1">
                    <mxGeometry y="30" width="200" height="30" as="geometry"/>
                </mxCell>
                <mxCell id="Y63EwKKuBG8s6ms2-5f4-23" value="name(Telegram/SMS/Mobile)" style="text;align=left;verticalAlign=middle;spacingLeft=4;spacingRight=4;overflow=hidden;points=[[0,0.5],[1,0.5]];portConstraint=eastwest;rotatable=0;rounded=0;sketch=0;" parent="Y63EwKKuBG8s6ms2-5f4-21" vertex="1">
                    <mxGeometry y="60" width="200" height="30" as="geometry"/>
                </mxCell>
                <mxCell id="Y63EwKKuBG8s6ms2-5f4-24" value="user_id" style="text;align=left;verticalAlign=middle;spacingLeft=4;spacingRight=4;overflow=hidden;points=[[0,0.5],[1,0.5]];portConstraint=eastwest;rotatable=0;rounded=0;sketch=0;" parent="Y63EwKKuBG8s6ms2-5f4-21" vertex="1">
                    <mxGeometry y="90" width="200" height="30" as="geometry"/>
                </mxCell>
                <mxCell id="Y63EwKKuBG8s6ms2-5f4-28" value="contact" style="text;align=left;verticalAlign=middle;spacingLeft=4;spacingRight=4;overflow=hidden;points=[[0,0.5],[1,0.5]];portConstraint=eastwest;rotatable=0;rounded=0;sketch=0;" parent="Y63EwKKuBG8s6ms2-5f4-21" vertex="1">
                    <mxGeometry y="120" width="200" height="30" as="geometry"/>
                </mxCell>
                <mxCell id="Y63EwKKuBG8s6ms2-5f4-27" style="edgeStyle=orthogonalEdgeStyle;rounded=1;orthogonalLoop=1;jettySize=auto;html=1;startArrow=none;startFill=0;endArrow=classic;endFill=1;exitX=0;exitY=0.5;exitDx=0;exitDy=0;fontColor=#46495D;sketch=0;" parent="YnU1zZ8jJRjlCIdMFHXs-1" source="Y63EwKKuBG8s6ms2-5f4-24" target="YnU1zZ8jJRjlCIdMFHXs-4" edge="1">
                    <mxGeometry relative="1" as="geometry">
                        <Array as="points">
                            <mxPoint x="60" y="465"/>
                            <mxPoint x="60" y="85"/>
                        </Array>
                    </mxGeometry>
                </mxCell>
                <mxCell id="cdguINuAkizJDKE-LRSd-0" style="edgeStyle=orthogonalEdgeStyle;rounded=1;orthogonalLoop=1;jettySize=auto;html=1;entryX=0;entryY=0.5;entryDx=0;entryDy=0;startArrow=none;startFill=0;endArrow=classic;endFill=1;fontColor=#46495D;sketch=0;" parent="YnU1zZ8jJRjlCIdMFHXs-1" source="Y63EwKKuBG8s6ms2-5f4-3" target="YnU1zZ8jJRjlCIdMFHXs-12" edge="1">
                    <mxGeometry relative="1" as="geometry">
                        <Array as="points">
                            <mxPoint x="410" y="525"/>
                            <mxPoint x="410" y="85"/>
                        </Array>
                    </mxGeometry>
                </mxCell>
                <mxCell id="cdguINuAkizJDKE-LRSd-2" style="edgeStyle=orthogonalEdgeStyle;rounded=1;orthogonalLoop=1;jettySize=auto;html=1;entryX=0;entryY=0.5;entryDx=0;entryDy=0;startArrow=none;startFill=0;endArrow=classic;endFill=1;fontColor=#46495D;sketch=0;" parent="YnU1zZ8jJRjlCIdMFHXs-1" source="cdguINuAkizJDKE-LRSd-1" target="YnU1zZ8jJRjlCIdMFHXs-14" edge="1">
                    <mxGeometry relative="1" as="geometry">
                        <Array as="points">
                            <mxPoint x="420" y="495"/>
                            <mxPoint x="420" y="145"/>
                        </Array>
                    </mxGeometry>
                </mxCell>
                <mxCell id="BtY6kqehKxjnLXZXNUI0-0" style="edgeStyle=orthogonalEdgeStyle;sketch=0;orthogonalLoop=1;jettySize=auto;html=1;entryX=0;entryY=0.5;entryDx=0;entryDy=0;fontColor=#46495D;exitX=0;exitY=0.5;exitDx=0;exitDy=0;" parent="YnU1zZ8jJRjlCIdMFHXs-1" source="cdguINuAkizJDKE-LRSd-3" target="Y63EwKKuBG8s6ms2-5f4-15" edge="1">
                    <mxGeometry relative="1" as="geometry">
                        <Array as="points">
                            <mxPoint x="430" y="465"/>
                            <mxPoint x="430" y="175"/>
                        </Array>
                    </mxGeometry>
                </mxCell>
                <mxCell id="X0o5svCrNW90flhc7Rnt-1" style="edgeStyle=orthogonalEdgeStyle;rounded=1;sketch=0;orthogonalLoop=1;jettySize=auto;html=1;shadow=0;fontFamily=Helvetica;fontColor=#46495D;" parent="YnU1zZ8jJRjlCIdMFHXs-1" source="YnU1zZ8jJRjlCIdMFHXs-20" target="X0o5svCrNW90flhc7Rnt-0" edge="1">
                    <mxGeometry relative="1" as="geometry"/>
                </mxCell>
            </root>
        </mxGraphModel>
    </diagram>
    <diagram id="ZiXFrJiQR0ep5xRG89OK" name="Agent DB">
        <mxGraphModel dx="868" dy="563" grid="1" gridSize="10" guides="1" tooltips="1" connect="1" arrows="1" fold="1" page="1" pageScale="1" pageWidth="827" pageHeight="1169" math="0" shadow="0">
            <root>
                <mxCell id="DtAG1HKcAyq8arM6TzyS-0"/>
                <mxCell id="DtAG1HKcAyq8arM6TzyS-1" parent="DtAG1HKcAyq8arM6TzyS-0"/>
                <mxCell id="DtAG1HKcAyq8arM6TzyS-2" value="DB Jobs" style="swimlane;fontStyle=0;childLayout=stackLayout;horizontal=1;startSize=30;horizontalStack=0;resizeParent=1;resizeParentMax=0;resizeLast=0;collapsible=1;marginBottom=0;glass=0;sketch=0;" parent="DtAG1HKcAyq8arM6TzyS-1" vertex="1">
                    <mxGeometry x="40" y="40" width="140" height="90" as="geometry"/>
                </mxCell>
                <mxCell id="DtAG1HKcAyq8arM6TzyS-3" value="job_id" style="text;align=left;verticalAlign=middle;spacingLeft=4;spacingRight=4;overflow=hidden;points=[[0,0.5],[1,0.5]];portConstraint=eastwest;rotatable=0;glass=0;sketch=0;" parent="DtAG1HKcAyq8arM6TzyS-2" vertex="1">
                    <mxGeometry y="30" width="140" height="30" as="geometry"/>
                </mxCell>
                <mxCell id="DtAG1HKcAyq8arM6TzyS-4" value="job_json" style="text;align=left;verticalAlign=middle;spacingLeft=4;spacingRight=4;overflow=hidden;points=[[0,0.5],[1,0.5]];portConstraint=eastwest;rotatable=0;glass=0;sketch=0;" parent="DtAG1HKcAyq8arM6TzyS-2" vertex="1">
                    <mxGeometry y="60" width="140" height="30" as="geometry"/>
                </mxCell>
                <mxCell id="DtAG1HKcAyq8arM6TzyS-6" value="DBs Results" style="swimlane;fontStyle=0;childLayout=stackLayout;horizontal=1;startSize=30;horizontalStack=0;resizeParent=1;resizeParentMax=0;resizeLast=0;collapsible=1;marginBottom=0;glass=0;sketch=0;" parent="DtAG1HKcAyq8arM6TzyS-1" vertex="1">
                    <mxGeometry x="240" y="40" width="280" height="90" as="geometry"/>
                </mxCell>
                <mxCell id="DtAG1HKcAyq8arM6TzyS-7" value="job_id+timestamp" style="text;align=left;verticalAlign=middle;spacingLeft=4;spacingRight=4;overflow=hidden;points=[[0,0.5],[1,0.5]];portConstraint=eastwest;rotatable=0;glass=0;sketch=0;" parent="DtAG1HKcAyq8arM6TzyS-6" vertex="1">
                    <mxGeometry y="30" width="280" height="30" as="geometry"/>
                </mxCell>
                <mxCell id="DtAG1HKcAyq8arM6TzyS-8" value="{job_id, timestamp, {code, latency, response}}" style="text;align=left;verticalAlign=middle;spacingLeft=4;spacingRight=4;overflow=hidden;points=[[0,0.5],[1,0.5]];portConstraint=eastwest;rotatable=0;glass=0;sketch=0;" parent="DtAG1HKcAyq8arM6TzyS-6" vertex="1">
                    <mxGeometry y="60" width="280" height="30" as="geometry"/>
                </mxCell>
            </root>
        </mxGraphModel>
    </diagram>
</mxfile>